<?xml version="1.0" encoding="UTF-8"?>
<svg width="36px" height="36px" viewBox="0 0 36 36" version="1.1" xmlns="http://www.w3.org/2000/svg" xmlns:xlink="http://www.w3.org/1999/xlink">
    <!-- Generator: Sketch 58 (84663) - https://sketch.com -->
    <title>Combined Shape</title>
    <desc>Created with Sketch.</desc>
    <g id="AU-Users" stroke="none" stroke-width="1" fill="none" fill-rule="evenodd">
        <g id="Home" transform="translate(-304.000000, -802.000000)" fill="#FFFFFF">
            <g id="Group-7" transform="translate(202.000000, 790.000000)">
                <g id="Group-8" transform="translate(90.000000, 0.000000)">
                    <path d="M29.6086857,36.4150309 L32.6808127,41.7361034 L30.7,41.736 L30.7006561,47.217381 L28.5167351,47.217381 L28.516,41.736 L26.5365661,41.7361034 L29.6086857,36.4150309 Z M34.4215103,34.4215303 L40.3563929,36.0117801 L38.956,37.411 L42.8320503,41.2878191 L41.2877851,42.8320843 L37.411,38.956 L36.0117548,40.3564181 L34.4215103,34.4215303 Z M24.7959043,34.4214888 L23.2056597,40.3563766 L21.805,38.955 L17.9296295,42.8320428 L16.3853643,41.2877776 L20.261,37.411 L18.8610217,36.0117386 L24.7959043,34.4214888 Z M31.9633029,25.2739525 C33.549297,25.2739525 34.9996818,26.568784 34.8349122,28.1462003 C34.4968694,31.382528 31.3666691,32.5075925 29.6025114,34.6510004 C27.7329578,32.4105639 24.410454,30.4145036 24.3701062,28.1462003 C24.3419284,26.5604418 25.6557116,25.2739525 27.2417155,25.2739525 C28.219922,25.2739525 29.0839799,25.8419221 29.6025114,26.5889253 C30.1210432,25.8419221 30.9850964,25.2739525 31.9633029,25.2739525 Z M17.4812776,26.5365741 L22.8023501,29.6086937 L17.4812776,32.6808206 L17.481,30.7 L12,30.700664 L12,28.516743 L17.481,28.516 L17.4812776,26.5365741 Z M41.7361034,26.5365741 L41.736,28.516 L47.217381,28.516743 L47.217381,30.700664 L41.736,30.7 L41.7361034,32.6808206 L36.4150309,29.6086937 L41.7361034,26.5365741 Z M17.9296034,16.3853722 L21.805,20.261 L23.2056424,18.8610296 L24.7958922,24.7959122 L18.8610044,23.2056677 L20.261,21.805 L16.3853382,17.9296374 L17.9296034,16.3853722 Z M41.2878111,16.3853307 L42.8320764,17.9295959 L38.956,21.805 L40.3564102,23.2056262 L34.4215224,24.7958707 L36.0117721,18.8609881 L37.412,20.261 L41.2878111,16.3853307 Z M30.7006561,12 L30.7,17.481 L32.6808127,17.4812776 L29.6086857,22.8023501 L26.5365661,17.4812776 L28.516,17.481 L28.5167351,12 L30.7006561,12 Z" id="Combined-Shape"></path>
                </g>
            </g>
        </g>
    </g>
</svg>