<?xml version="1.0" encoding="UTF-8"?>
<svg width="25px" height="25px" viewBox="0 0 25 25" version="1.1" xmlns="http://www.w3.org/2000/svg" xmlns:xlink="http://www.w3.org/1999/xlink">
    <!-- Generator: Sketch 58 (84663) - https://sketch.com -->
    <title>noun_add_2244412</title>
    <desc>Created with Sketch.</desc>
    <g id="AU-Users" stroke="none" stroke-width="1" fill="none" fill-rule="evenodd">
        <g id="Youth-Profile-Options" transform="translate(-1195.000000, -1141.000000)" fill="#9F2241" fill-rule="nonzero">
            <g id="noun_add_2244412" transform="translate(1195.000000, 1141.000000)">
                <g id="Group">
                    <path d="M22.6514346,23.6675532 C22.4495218,23.6675532 22.2476089,23.6675532 22.0456961,23.6675532 C21.498406,23.6675532 20.9511158,23.6675532 20.4064825,23.6675532 C19.6014878,23.6675532 18.7964931,23.6675532 17.9914984,23.6675532 C17.0297556,23.6675532 16.0680128,23.6675532 15.1062699,23.6675532 C14.0621679,23.6675532 13.0154091,23.6675532 11.9713071,23.6675532 C10.9458023,23.6675532 9.92029756,23.6675532 8.89479277,23.6675532 C7.97555792,23.6675532 7.05632306,23.6675532 6.13443146,23.6675532 C5.40913921,23.6675532 4.68650372,23.6675532 3.96121148,23.6675532 C3.52284803,23.6675532 3.08182784,23.6675532 2.6434644,23.6675532 C2.55844846,23.6675532 2.47608927,23.6675532 2.39107333,23.6675532 C2.38575983,23.6675532 2.38044633,23.6675532 2.37513284,23.6675532 C2.33793836,23.6675532 2.30074389,23.6675532 2.26354942,23.6648936 C2.24495218,23.6648936 2.2130712,23.6569149 2.19181722,23.6595745 C2.19978746,23.6595745 2.36716259,23.6888298 2.26089267,23.6675532 C2.2130712,23.6569149 2.16790648,23.6489362 2.12274176,23.6382979 C2.08289054,23.6276596 2.04303932,23.6143617 2.00584485,23.6010638 C1.98990436,23.5957447 1.97396387,23.587766 1.95536663,23.5824468 C1.85706695,23.5478723 2.01115834,23.6037234 2.01647184,23.6090426 C1.95005313,23.5585106 1.8597237,23.5292553 1.7879915,23.4840426 C1.76939426,23.4707447 1.75079702,23.4574468 1.73219979,23.4441489 C1.67375133,23.412234 1.80127524,23.5 1.79861849,23.4973404 C1.76939426,23.4654255 1.72688629,23.4388298 1.69500531,23.4069149 C1.66578108,23.3803191 1.63655685,23.3510638 1.60998937,23.3218085 C1.58607864,23.2978723 1.49043571,23.1781915 1.56216791,23.2712766 C1.63390011,23.3617021 1.55154091,23.2526596 1.53560043,23.2260638 C1.51434644,23.1914894 1.49309245,23.1569149 1.47449522,23.1223404 C1.45589798,23.087766 1.44261424,23.0452128 1.42136026,23.0132979 C1.5010627,23.1276596 1.46652497,23.1303191 1.44792774,23.0744681 C1.43730074,23.0478723 1.42667375,23.018617 1.41870351,22.9920213 C1.39213603,22.912234 1.37619554,22.8324468 1.36025505,22.75 C1.34431456,22.6808511 1.37088204,22.8457447 1.37088204,22.837766 C1.37088204,22.8138298 1.36556854,22.787234 1.36556854,22.7659574 C1.3629118,22.7287234 1.3629118,22.6914894 1.3629118,22.6542553 C1.3629118,22.6409574 1.3629118,22.625 1.3629118,22.6117021 C1.3629118,22.5079787 1.3629118,22.4042553 1.3629118,22.2978723 C1.3629118,21.8244681 1.3629118,21.3537234 1.3629118,20.8803191 C1.3629118,20.1303191 1.3629118,19.3829787 1.3629118,18.6329787 C1.3629118,17.6968085 1.3629118,16.7632979 1.3629118,15.8271277 C1.3629118,14.7952128 1.3629118,13.7632979 1.3629118,12.731383 C1.3629118,11.6888298 1.3629118,10.6462766 1.3629118,9.6037234 C1.3629118,8.65425532 1.3629118,7.70212766 1.3629118,6.75265957 C1.3629118,5.96808511 1.3629118,5.18351064 1.3629118,4.40159574 C1.3629118,3.8856383 1.3629118,3.36968085 1.3629118,2.85106383 C1.3629118,2.72074468 1.3629118,2.59042553 1.3629118,2.46010638 C1.3629118,2.43085106 1.3629118,2.40159574 1.3629118,2.37234043 C1.3629118,2.36702128 1.3629118,2.36170213 1.3629118,2.35904255 C1.3629118,2.30851064 1.36556854,2.2606383 1.36822529,2.21276596 C1.37353879,2.1037234 1.36025505,2.27393617 1.3575983,2.28191489 C1.36556854,2.2606383 1.36556854,2.23138298 1.37088204,2.21010638 C1.37885228,2.16223404 1.39213603,2.11702128 1.40541977,2.07180851 C1.41604676,2.03191489 1.4293305,1.99468085 1.44261424,1.95478723 C1.48777896,1.82180851 1.38416578,2.06648936 1.43730074,1.96808511 C1.47980871,1.8856383 1.52763018,1.80851064 1.5781084,1.7287234 C1.6392136,1.6356383 1.48246546,1.83776596 1.55685441,1.75265957 C1.58873539,1.71808511 1.61795962,1.68351064 1.6498406,1.65159574 C1.67906482,1.62234043 1.70828905,1.59574468 1.73751328,1.56914894 C1.75079702,1.55851064 1.76408077,1.54787234 1.77736451,1.53457447 C1.86769394,1.45212766 1.67640808,1.60106383 1.73751328,1.56382979 C1.80658874,1.52393617 1.87035069,1.47340426 1.94473964,1.43617021 C1.96599362,1.42553191 1.98724761,1.41755319 2.00584485,1.40425532 C2.06163656,1.36968085 1.92348565,1.43617021 1.9261424,1.43617021 C1.97662062,1.42553191 2.02709883,1.39893617 2.0749203,1.38297872 C2.11477152,1.37234043 2.15462274,1.36170213 2.19447396,1.35106383 C2.22369819,1.34574468 2.37247609,1.32180851 2.24760893,1.33776596 C2.12805526,1.3537234 2.27151966,1.33776596 2.30340064,1.33776596 C2.32731137,1.33776596 2.35387885,1.33510638 2.37778959,1.33510638 C2.4335813,1.33510638 2.48937301,1.33510638 2.54782147,1.33510638 C2.94102019,1.33510638 3.33156217,1.33510638 3.72476089,1.33510638 C4.41551541,1.33510638 5.10361318,1.33510638 5.79436769,1.33510638 C6.69234857,1.33510638 7.59032944,1.33510638 8.48831031,1.33510638 C9.5031881,1.33510638 10.5207226,1.33510638 11.5356004,1.33510638 C12.5797024,1.33510638 13.6238045,1.33510638 14.6679065,1.33510638 C15.6509033,1.33510638 16.6312434,1.33510638 17.6142402,1.33510638 C18.4458023,1.33510638 19.2747078,1.33510638 20.1062699,1.33510638 C20.696068,1.33510638 21.2885228,1.33510638 21.8783209,1.33510638 C22.1333688,1.33510638 22.3884166,1.33244681 22.6461211,1.33510638 C22.6514346,1.33510638 22.6540914,1.33510638 22.6594049,1.33510638 C22.7205101,1.33510638 22.7816153,1.34308511 22.8427205,1.34574468 C22.6381509,1.34042553 22.7816153,1.33776596 22.8427205,1.35106383 C22.8878852,1.36170213 22.9357067,1.37234043 22.9808714,1.38829787 C23.0207226,1.40159574 23.0579171,1.41755319 23.0977683,1.42819149 C23.1615303,1.44680851 23.0154091,1.39361702 23.0207226,1.3962766 C23.0366631,1.40691489 23.0658874,1.41755319 23.0844846,1.42553191 C23.164187,1.46542553 23.238576,1.53457447 23.3209352,1.56914894 C23.3262487,1.57180851 23.206695,1.47340426 23.2545165,1.51861702 C23.270457,1.53457447 23.2890542,1.54787234 23.3076514,1.56382979 C23.3368757,1.59042553 23.3660999,1.61702128 23.3953241,1.6462766 C23.4245484,1.67553191 23.4484591,1.70478723 23.4776833,1.73670213 C23.5706695,1.84042553 23.4032944,1.62234043 23.4776833,1.7393617 C23.522848,1.80851064 23.5626993,1.87765957 23.5998937,1.94946809 C23.6716259,2.08244681 23.5600425,1.83244681 23.5945802,1.93351064 C23.6105207,1.98404255 23.629118,2.03191489 23.6424017,2.08510638 C23.6530287,2.125 23.6636557,2.16489362 23.6716259,2.20744681 C23.6769394,2.23138298 23.6769394,2.25531915 23.6849097,2.27925532 C23.6875664,2.28723404 23.6689692,2.11968085 23.6716259,2.19148936 C23.6742827,2.24734043 23.6795962,2.30053191 23.6795962,2.35638298 C23.6795962,2.37234043 23.6795962,2.38829787 23.6795962,2.40425532 C23.6795962,2.71276596 23.6795962,3.01861702 23.6795962,3.32712766 C23.6795962,3.95478723 23.6795962,4.58244681 23.6795962,5.21010638 C23.6795962,6.06648936 23.6795962,6.92287234 23.6795962,7.78191489 C23.6795962,8.77925532 23.6795962,9.77659574 23.6795962,10.7712766 C23.6795962,11.8164894 23.6795962,12.8643617 23.6795962,13.9095745 C23.6795962,14.9148936 23.6795962,15.9228723 23.6795962,16.9281915 C23.6795962,17.8031915 23.6795962,18.6808511 23.6795962,19.5558511 C23.6795962,20.212766 23.6795962,20.8670213 23.6795962,21.5239362 C23.6795962,21.8696809 23.6795962,22.2154255 23.6795962,22.5611702 C23.6795962,22.587766 23.6795962,22.6143617 23.6795962,22.6409574 C23.6795962,22.6462766 23.6795962,22.6489362 23.6795962,22.6542553 C23.6795962,22.7101064 23.6742827,22.7632979 23.6716259,22.8191489 C23.6689692,22.8909574 23.6875664,22.7234043 23.6849097,22.731383 C23.6795962,22.7526596 23.6769394,22.7792553 23.6716259,22.8031915 C23.6636557,22.8430851 23.6530287,22.8856383 23.6424017,22.9255319 C23.6317747,22.9654255 23.618491,23.0053191 23.6052072,23.0425532 C23.597237,23.0638298 23.58661,23.087766 23.5812965,23.1090426 C23.5839532,23.1010638 23.6556854,22.9547872 23.6052072,23.0452128 C23.565356,23.1170213 23.5308183,23.1888298 23.4856536,23.2553191 C23.4750266,23.268617 23.4643996,23.2819149 23.4564293,23.2978723 C23.4165781,23.3670213 23.5520723,23.1888298 23.4962806,23.2446809 C23.4697131,23.2739362 23.4431456,23.3058511 23.4165781,23.3351064 C23.3607864,23.393617 23.2943677,23.4414894 23.238576,23.4973404 C23.2438895,23.4920213 23.3767269,23.4015957 23.2890542,23.4547872 C23.2757705,23.462766 23.25983,23.4734043 23.2465462,23.4840426 C23.2120085,23.5053191 23.1774708,23.5265957 23.142933,23.5478723 C23.1057386,23.5691489 23.0526036,23.5851064 23.0180659,23.6117021 C23.0154091,23.6143617 23.1588735,23.5611702 23.0951116,23.5797872 C23.0791711,23.5851064 23.0632306,23.5930851 23.0446334,23.5984043 C22.9622742,23.6276596 22.8746015,23.6515957 22.7869288,23.6675532 C22.6434644,23.6941489 22.9197662,23.6595745 22.8028693,23.6648936 C22.7497343,23.662234 22.7019129,23.6675532 22.6514346,23.6675532 C22.3034006,23.6702128 21.9713071,23.9707447 21.9872476,24.3324468 C22.0031881,24.6888298 22.2794899,25.0026596 22.6514346,24.9974071 C23.5361318,24.9867021 24.4075452,24.4734043 24.7688629,23.6489362 C24.9202976,23.3058511 24.9946865,22.9547872 24.9946865,22.5824468 C24.9946865,22.2526596 24.9946865,21.9228723 24.9946865,21.5930851 C24.9946865,20.9441489 24.9946865,20.2925532 24.9946865,19.643617 C24.9946865,18.7632979 24.9946865,17.8803191 24.9946865,17 C24.9946865,15.9867021 24.9946865,14.9734043 24.9946865,13.962766 C24.9946865,12.9042553 24.9946865,11.8430851 24.9946865,10.7845745 C24.9946865,9.77925532 24.9946865,8.77393617 24.9946865,7.76861702 C24.9946865,6.90159574 24.9946865,6.03723404 24.9946865,5.17021277 C24.9946865,4.54255319 24.9946865,3.91755319 24.9946865,3.28989362 C24.9946865,2.99202128 24.9946865,2.69148936 24.9946865,2.39361702 C24.9946865,1.92553191 24.8724761,1.44148936 24.598831,1.05319149 C24.1445271,0.406914894 23.4378321,0.0132978723 22.6434644,0.0079787234 C22.4043571,0.00531914894 22.1679065,0.0079787234 21.9287991,0.0079787234 C21.3469713,0.0079787234 20.7624867,0.0079787234 20.1806589,0.0079787234 C19.3490967,0.0079787234 18.5201913,0.0079787234 17.6886291,0.0079787234 C16.6976621,0.0079787234 15.7040383,0.0079787234 14.7130712,0.0079787234 C13.6609989,0.0079787234 12.6089267,0.0079787234 11.5568544,0.0079787234 C10.5313496,0.0079787234 9.50850159,0.0079787234 8.48299681,0.0079787234 C7.57438895,0.0079787234 6.66578108,0.0079787234 5.75982997,0.0079787234 C5.06907545,0.0079787234 4.37566419,0.0079787234 3.68490967,0.0079787234 C3.29702444,0.0079787234 2.90913921,0.0079787234 2.52125399,0.0079787234 C2.44686504,0.0079787234 2.37247609,0.00531914894 2.29808714,0.0106382979 C1.33368757,0.0531914894 0.523379384,0.656914894 0.172688629,1.54787234 C0.0132837407,1.95478723 0.0265674814,2.37765957 0.0265674814,2.80053191 C0.0265674814,3.30851064 0.0265674814,3.81648936 0.0265674814,4.32180851 C0.0265674814,5.10106383 0.0265674814,5.88031915 0.0265674814,6.65957447 C0.0265674814,7.62234043 0.0265674814,8.58510638 0.0265674814,9.54787234 C0.0265674814,10.5930851 0.0265674814,11.6409574 0.0265674814,12.6861702 C0.0265674814,13.731383 0.0265674814,14.7765957 0.0265674814,15.8218085 C0.0265674814,16.7632979 0.0265674814,17.7074468 0.0265674814,18.6489362 C0.0265674814,19.4042553 0.0265674814,20.1595745 0.0265674814,20.9148936 C0.0265674814,21.3829787 0.0265674814,21.8510638 0.0265674814,22.3191489 C0.0265674814,22.4175532 0.0265674814,22.518617 0.0265674814,22.6170213 C0.0265674814,23.1090426 0.167375133,23.6090426 0.462274176,24.0053191 C0.919234857,24.6196809 1.60733262,24.9893617 2.37778959,24.9946809 C2.45217853,24.9946809 2.52656748,24.9946809 2.60095643,24.9946809 C3.02869288,24.9946809 3.45642933,24.9946809 3.88150903,24.9946809 C4.60680128,24.9946809 5.32943677,24.9946809 6.05472901,24.9946809 C6.97927736,24.9946809 7.90116897,24.9946809 8.82571732,24.9946809 C9.8618491,24.9946809 10.9006376,24.9946809 11.9367694,24.9946809 C12.9861849,24.9946809 14.0356004,24.9946809 15.0850159,24.9946809 C16.0600425,24.9946809 17.0324123,24.9946809 18.0074389,24.9946809 C18.8177471,24.9946809 19.6253985,24.9946809 20.4357067,24.9946809 C20.9803401,24.9946809 21.5249734,24.9946809 22.0696068,24.9946809 C22.2608927,24.9946809 22.4548353,24.9946809 22.6461211,24.9946809 C22.9941552,24.9946809 23.3262487,24.6888298 23.3103082,24.3297872 C23.2996812,23.9707447 23.0233794,23.6675532 22.6514346,23.6675532 Z" id="Path"></path>
                    <g transform="translate(4.144527, 4.122340)" id="Group-4">
                        <g transform="translate(0.018046, 0.020724)">
                            <path d="M9.00958457,16.0510841 C9.00958457,15.5377863 9.00958457,15.0244884 9.00958457,14.5111905 C9.00958457,13.2877863 9.00958457,12.0670416 9.00958457,10.8436373 C9.00958457,9.36225434 9.00958457,7.87821179 9.01224132,6.39682881 C9.01224132,5.11491392 9.01224132,3.8356586 9.01224132,2.55374371 C9.01224132,1.93406285 9.02552506,1.31172243 9.01224132,0.692041578 C9.01224132,0.684062855 9.01224132,0.673424557 9.01224132,0.665445833 C9.01224132,0.317041578 8.70671529,-0.0154052306 8.34805429,0.000552216224 C7.98939329,0.016509663 7.68386725,0.293105408 7.68386725,0.665445833 C7.68386725,1.17874371 7.68386725,1.69204158 7.68386725,2.20533945 C7.68386725,3.42874371 7.68386725,4.64948839 7.68386725,5.87289264 C7.68386725,7.35427562 7.68386725,8.83831817 7.6812105,10.3197012 C7.6812105,11.601616 7.6812105,12.8808714 7.6812105,14.1627863 C7.6812105,14.7824671 7.66792676,15.4048075 7.6812105,16.0244884 C7.6812105,16.0324671 7.6812105,16.0431054 7.6812105,16.0510841 C7.6812105,16.3994884 7.98673654,16.7319352 8.34539754,16.7159777 C8.70671529,16.7000203 9.00958457,16.4234246 9.00958457,16.0510841 L9.00958457,16.0510841 Z" id="Path"></path>
                            <path d="M16.0340267,7.69470115 C15.5212743,7.69470115 15.0085219,7.69470115 14.4957695,7.69470115 C13.2736653,7.69470115 12.0542179,7.69470115 10.8321138,7.69470115 C9.35230508,7.69470115 7.86983962,7.69470115 6.39003091,7.69204158 C5.1094783,7.69204158 3.83158245,7.69204158 2.55102984,7.69204158 C1.93200753,7.69204158 1.31032846,7.67874371 0.691306146,7.69204158 C0.683335901,7.69204158 0.672708909,7.69204158 0.664738664,7.69204158 C0.316704658,7.69204158 -0.0153888595,7.99789264 0.000551629384,8.35693519 C0.0164921182,8.71597775 0.292793925,9.02182881 0.664738664,9.02182881 C1.17749106,9.02182881 1.69024345,9.02182881 2.20299584,9.02182881 C3.42509998,9.02182881 4.64454738,9.02182881 5.86665152,9.02182881 C7.34646024,9.02182881 8.8289257,9.02182881 10.3087344,9.02448839 C11.589287,9.02448839 12.8671829,9.02448839 14.1477355,9.02448839 C14.7667578,9.02448839 15.3884369,9.03778626 16.0074592,9.02448839 C16.0154294,9.02448839 16.0260564,9.02448839 16.0340267,9.02448839 C16.3820607,9.02448839 16.7141542,8.71863732 16.6982137,8.35959477 C16.6822732,8.00055222 16.4059714,7.69470115 16.0340267,7.69470115 L16.0340267,7.69470115 Z" id="Path"></path>
                        </g>
                    </g>
                </g>
            </g>
        </g>
    </g>
</svg>