<?xml version="1.0" encoding="UTF-8"?>
<svg width="18px" height="18px" viewBox="0 0 18 18" version="1.1" xmlns="http://www.w3.org/2000/svg" xmlns:xlink="http://www.w3.org/1999/xlink">
    <!-- Generator: Sketch 63.1 (92452) - https://sketch.com -->
    <title>Path</title>
    <desc>Created with Sketch.</desc>
    <g id="AU-Users" stroke="none" stroke-width="1" fill="none" fill-rule="evenodd">
        <g id="New-Event---3" transform="translate(-1082.000000, -401.000000)" fill="#58595B" fill-rule="nonzero">
            <path d="M1098.34703,401.283933 L1091,408.626559 L1083.65297,401.283933 C1083.27439,400.905356 1082.66251,400.905356 1082.28393,401.283933 C1081.90536,401.662509 1081.90536,402.274395 1082.28393,402.652971 L1089.63096,410 L1082.28393,417.342627 C1081.90536,417.721203 1081.90536,418.333089 1082.28393,418.711665 C1082.66251,419.090242 1083.27439,419.090242 1083.65297,418.711665 L1091,411.369039 L1098.34703,418.716067 C1098.72561,419.094644 1099.33749,419.094644 1099.71607,418.716067 C1100.09464,418.337491 1100.09464,417.725605 1099.71607,417.347029 L1092.36904,410 L1099.71607,402.652971 C1100.09464,402.274395 1100.09464,401.662509 1099.71607,401.283933 C1099.33749,400.905356 1098.7212,400.905356 1098.34703,401.283933 Z" id="Path"></path>
        </g>
    </g>
</svg>