<?xml version="1.0" encoding="UTF-8"?>
<svg width="50px" height="50px" viewBox="0 0 50 50" version="1.1" xmlns="http://www.w3.org/2000/svg" xmlns:xlink="http://www.w3.org/1999/xlink">
    <!-- Generator: Sketch 63.1 (92452) - https://sketch.com -->
    <title>noun_Check_1604774</title>
    <desc>Created with Sketch.</desc>
    <g id="AU-Users" stroke="none" stroke-width="1" fill="none" fill-rule="evenodd">
        <g id="Event-Created" transform="translate(-822.000000, -259.000000)" fill="#9F2241" fill-rule="nonzero">
            <g id="noun_Check_1604774" transform="translate(822.000000, 259.000000)">
                <path d="M42.677444,7.32255596 C32.9140361,-2.44085199 17.0859639,-2.44085199 7.32255596,7.32255596 C-2.44085199,17.0859639 -2.44085199,32.9140361 7.32255596,42.677444 C17.0859639,52.440852 32.9140361,52.440852 42.677444,42.677444 C52.440852,32.9140361 52.440852,17.0859639 42.677444,7.32255596 Z M37.2504942,20.4530961 C36.6956827,21.0079077 36.134494,21.5690964 35.5796824,22.1239079 C33.1436133,24.559977 30.7139213,26.989669 28.2778522,29.4257382 C26.7473375,30.9498756 25.2232001,32.4803903 23.6990626,34.0045278 C22.7233595,34.9802309 21.065302,34.9802309 20.0895989,34.0045278 C19.7898731,33.704802 19.4901473,33.4050762 19.1967987,33.1053504 C17.0859639,30.9881385 14.9751291,28.8773037 12.8642944,26.7600918 C11.8567056,25.752503 11.9268542,24.1709712 12.8642944,23.1506281 C13.7953574,22.1366622 15.5299407,22.2068108 16.4737581,23.1506281 C16.7734838,23.4503539 17.0732096,23.7500797 17.3665583,24.0498055 C18.8779415,25.5611887 20.3893247,27.078949 21.8943307,28.5903322 C24.2857598,26.1989031 26.6708118,23.8138512 29.0622409,21.422422 L33.6410305,16.8436324 C34.6486193,15.8360436 36.2301511,15.9061922 37.2504942,16.8436324 C38.2644602,17.7810726 38.1943116,19.5092787 37.2504942,20.4530961 Z" id="Shape"></path>
            </g>
        </g>
    </g>
</svg>