<?xml version="1.0" encoding="UTF-8"?>
<svg width="26px" height="25px" viewBox="0 0 26 25" version="1.1" xmlns="http://www.w3.org/2000/svg" xmlns:xlink="http://www.w3.org/1999/xlink">
    <!-- Generator: Sketch 58 (84663) - https://sketch.com -->
    <title>noun_edit_1978712</title>
    <desc>Created with Sketch.</desc>
    <g id="AU-Users" stroke="none" stroke-width="1" fill="none" fill-rule="evenodd">
        <g id="Youth-Profile" transform="translate(-1194.000000, -526.000000)" fill="#9F2241" fill-rule="nonzero">
            <g id="noun_edit_1978712" transform="translate(1194.000000, 526.000000)">
                <path d="M24.0958173,9.3679331 C23.6342762,9.3679331 23.2563531,9.75454348 23.2554109,10.2351935 L23.2554109,20.625015 C23.2554109,22.2793066 21.6581621,23.040141 20.9018582,23.040141 L4.2592961,23.040141 C3.19907614,23.040141 2.09825864,21.966692 1.90571654,19.9734816 L1.90571654,4.14628821 C1.90571654,1.66957972 3.66444007,1.73019498 4.25926918,1.73019498 L15.3462162,1.73019498 C15.808215,1.73019498 16.1842267,1.34216057 16.1842267,0.864869109 C16.1842267,0.388518044 15.808215,0 15.3462162,0 L4.13217309,0 C2.68164615,0 0.227272727,0.930266959 0.227272727,3.36352914 L0.227272727,20.1056744 C0.227272727,23.3790061 2.22775075,24.7727273 4.13217309,24.7727273 L21.0298966,24.7727273 C23.1770426,24.7727273 24.9352815,23.3985932 24.9352815,20.7576915 L24.9352815,10.2304378 C24.9324279,9.75457035 24.5549624,9.36795997 24.0958173,9.36795997 M8.53541613,17.5898723 L9.16992744,15.1890672 L10.8622089,16.9335831 L8.53541613,17.5898723 M10.1360032,13.9203919 L18.9171562,4.86700799 L20.8770098,6.92129043 L12.1130595,15.9555978 L10.1360032,13.9203919 M23.3246797,4.39686354 L22.1159073,5.64213641 L20.1565114,3.59024527 L21.3481079,2.36214134 C21.5363426,2.16739869 21.9023395,2.19555684 22.1177918,2.41845765 L23.2673371,3.60550656 C23.3877567,3.73009564 23.4565678,3.89380522 23.4565678,4.05609076 C23.4560833,4.18973452 23.4092669,4.31048141 23.3246797,4.39686354 M7.97165436,13.7228012 C7.95587839,13.7433287 7.93916018,13.7662207 7.93197216,13.7939221 L6.6821176,18.5182047 C6.60899898,18.7936065 6.6840021,19.0909599 6.88133622,19.2995398 C7.02897337,19.4470477 7.22391149,19.5296145 7.43126038,19.5296145 C7.50007157,19.5296145 7.56888276,19.5210166 7.63672478,19.50194 L12.1880626,18.2227591 C12.1952237,18.2227591 12.198562,18.229933 12.203354,18.229933 C12.2563892,18.229933 12.3070285,18.2098891 12.3461992,18.1688341 L24.5153071,5.62590786 C24.8774812,5.25313474 25.0757576,4.74435343 25.0757576,4.19164218 C25.0757576,3.56587557 24.8177425,2.93871179 24.3662431,2.47480083 L23.2171824,1.28823556 C22.7661676,0.822390061 22.157474,0.556526573 21.5511494,0.556526573 C21.0146052,0.556526573 20.5220237,0.760807533 20.1579651,1.13312389 L7.9892879,13.6798117 C7.97687711,13.6917413 7.98115762,13.7089371 7.97160051,13.7227744" id="Shape"></path>
            </g>
        </g>
    </g>
</svg>