<?xml version="1.0" encoding="UTF-8"?>
<svg width="55px" height="50px" viewBox="0 0 55 50" version="1.1" xmlns="http://www.w3.org/2000/svg" xmlns:xlink="http://www.w3.org/1999/xlink">
    <!-- Generator: Sketch 63.1 (92452) - https://sketch.com -->
    <title>noun_Email_2096937</title>
    <desc>Created with Sketch.</desc>
    <g id="AU-Users" stroke="none" stroke-width="1" fill="none" fill-rule="evenodd">
        <g id="Verify-Email" transform="translate(-821.000000, -400.000000)" fill="#9F2241">
            <g id="noun_Email_2096937" transform="translate(821.000000, 400.000000)">
                <g id="Group">
                    <polygon id="Path" points="35.5172414 33.7931034 54.3103448 20.862069 54.3103448 48.4482759"></polygon>
                    <polygon id="Path" points="3.10344828 50 27.2413793 31.2068966 51.2068966 50"></polygon>
                    <polygon id="Path" points="0 20.862069 18.7931034 33.9655172 0 48.4482759"></polygon>
                    <polygon id="Path" points="6.20689655 14.4827586 6.20689655 21.5517241 1.20689655 17.9310345"></polygon>
                    <polygon id="Path" points="27.2413793 0 31.0344828 2.75862069 23.2758621 2.75862069"></polygon>
                    <polygon id="Path" points="48.1034483 14.4827586 52.9310345 17.9310345 48.1034483 21.3793103"></polygon>
                    <path d="M9.31034483,5.86206897 L45,5.86206897 L45,23.6206897 L32.9310345,31.8965517 L28.1034483,28.1034483 C27.5862069,27.5862069 26.8965517,27.5862069 26.2068966,28.1034483 L21.3793103,31.8965517 L9.31034483,23.6206897 L9.31034483,5.86206897 Z M36.3793103,11.7241379 L17.9310345,11.7241379 C17.2413793,11.7241379 16.5517241,12.4137931 16.5517241,13.1034483 C16.5517241,13.7931034 17.2413793,14.4827586 17.9310345,14.4827586 L36.3793103,14.4827586 C37.0689655,14.4827586 37.7586207,13.7931034 37.7586207,13.1034483 C37.7586207,12.4137931 37.0689655,11.7241379 36.3793103,11.7241379 Z M36.3793103,18.7931034 L17.9310345,18.7931034 C17.2413793,18.7931034 16.5517241,19.4827586 16.5517241,20.1724138 C16.5517241,21.0344828 17.2413793,21.5517241 17.9310345,21.5517241 L36.3793103,21.5517241 C37.0689655,21.5517241 37.7586207,21.0344828 37.7586207,20.1724138 C37.7586207,19.4827586 37.0689655,18.7931034 36.3793103,18.7931034 Z" id="Shape"></path>
                </g>
            </g>
        </g>
    </g>
</svg>