<?xml version="1.0" encoding="UTF-8"?>
<svg width="29px" height="39px" viewBox="0 0 29 39" version="1.1" xmlns="http://www.w3.org/2000/svg" xmlns:xlink="http://www.w3.org/1999/xlink">
    <title>Good Practices</title>
    <g id="Page-1" stroke="none" stroke-width="1" fill="none" fill-rule="evenodd">
        <g id="Home" transform="translate(-1106.000000, -801.000000)" fill="#FFFFFF" fill-rule="nonzero">
            <g id="Group-7-Copy-3" transform="translate(1000.000000, 790.000000)">
                <g id="Group-9" transform="translate(90.000000, 0.000000)">
                    <g id="Group" transform="translate(16.000000, 11.000000)">
                        <path d="M18.3914143,11.4479958 L15.8474468,11.078389 L14.7094851,8.77332424 C14.5103995,8.36967099 13.8488006,8.37024807 13.6497151,8.77332424 L12.5123305,11.078389 L9.96836295,11.4479958 C9.74561794,11.4803111 9.5606703,11.6364058 9.4911346,11.8502064 C9.4215989,12.064007 9.47959338,12.2988702 9.64059306,12.4558305 L11.4814134,14.250486 L11.0468874,16.784355 C11.0090901,17.0059459 11.1002654,17.2301335 11.2820392,17.3622802 C11.3850444,17.4370094 11.5070925,17.4750954 11.6294291,17.4750954 C11.7234899,17.4750954 11.8178392,17.4525901 11.9043981,17.4072908 L14.1797443,16.2110461 L16.455379,17.4072908 C16.6544646,17.5120272 16.8959641,17.4947154 17.0777379,17.3622802 C17.2595117,17.2301335 17.3506871,17.0059459 17.3128897,16.784355 L16.8783637,14.250486 L18.7191841,12.4558305 C18.8801837,12.2988702 18.9381782,12.064007 18.8686425,11.8502064 C18.7991068,11.6364058 18.6141593,11.4803111 18.3914143,11.4479958 Z" id="Path"></path>
                        <path d="M9.56384414,27.7958074 C9.05891693,27.6308405 8.63769944,27.3744817 8.27270919,27.0771156 L8.27270919,38.1133478 C8.27270919,38.3201516 8.37906851,38.5151617 8.56224885,38.621521 C8.73955042,38.7278803 8.95818389,38.7337952 9.14136429,38.6333507 L11.0913571,37.5874301 L11.0913571,27.9435347 C10.9678663,27.9537775 10.8452772,27.9674826 10.7191176,27.9674826 C10.3183497,27.9674826 9.9297,27.9097767 9.56384414,27.7958074 Z" id="Path"></path>
                        <path d="M14.1817641,27.2643354 C13.8565909,27.2643354 13.3845561,27.4068692 12.9278134,27.5447865 C12.7156719,27.6080466 12.4961367,27.6705494 12.2731753,27.7298783 L12.2731753,36.9492382 L14.1818002,35.9269747 L16.090461,36.9492382 L16.090461,27.7330161 C15.8629914,27.6722445 15.6405348,27.6083352 15.4299441,27.5447865 C14.9732014,27.4068692 14.5011666,27.2643354 14.1817641,27.2643354 Z" id="Path"></path>
                        <path d="M17.6403712,27.9695024 C17.5154377,27.9695024 17.3944356,27.9556169 17.2722792,27.9456265 L17.2722792,37.58743 L19.222272,38.6333507 C19.3050079,38.6805974 19.4054524,38.7042569 19.499982,38.7042569 C19.6063413,38.7042569 19.7127367,38.6747186 19.8013514,38.621521 C19.9845318,38.5151616 20.0908911,38.3201515 20.0908911,38.1133478 L20.0908911,27.0731845 C19.7266582,27.371885 19.3086506,27.6275224 18.8092055,27.7906139 C18.4393103,27.9100652 18.0474867,27.9695024 17.6403712,27.9695024 Z" id="Path"></path>
                        <path d="M26.874552,10.984689 C26.5495231,10.5237986 26.2422749,10.0806168 26.1063413,9.66697325 C25.9645289,9.21787655 25.9527353,8.66242059 25.9409055,8.07742638 C25.9172821,7.15560962 25.8995375,6.19242496 25.3440815,5.43016518 C24.7827107,4.65607569 23.8727237,4.34287655 22.9922749,4.0355923 C22.4427337,3.84653313 21.9227308,3.66923156 21.5504553,3.39743672 C21.1840945,3.13152042 20.8590657,2.69425349 20.5104495,2.2392419 C19.972702,1.5242289 19.3640844,0.714686227 18.4422676,0.419231682 C17.5618189,0.129692018 16.6517958,0.401523141 15.771347,0.667439441 C15.2040974,0.838790077 14.6663499,1.00426194 14.1818002,1.00426194 C13.6913716,1.00426194 13.1536241,0.838790077 12.5863384,0.667439441 C11.7058897,0.401523141 10.7959026,0.129691959 9.91545384,0.419231682 C8.99363707,0.714686227 8.3849834,1.52422896 7.84727202,2.2392419 C7.49861976,2.69425343 7.17362703,3.13152042 6.80726623,3.39743672 C6.4349906,3.66923156 5.91498771,3.84653313 5.37136145,4.0355923 C4.4909127,4.34287655 3.58088959,4.65607569 3.01955479,5.43016518 C2.46409883,6.1924249 2.44043936,7.15560962 2.42273082,8.07742638 C2.41090111,8.66242059 2.39907135,9.21787661 2.25134408,9.66697325 C2.11544651,10.0806168 1.80816226,10.5237986 1.48316947,10.984689 C0.969081455,11.7174105 0.384087186,12.5565274 0.384087186,13.5433355 C0.384087186,14.5301436 0.969081395,15.3633456 1.48316947,16.0960671 C1.80816226,16.5628722 2.11544651,17.0001392 2.25134408,17.4196976 C2.39907135,17.8628795 2.41090105,18.4183354 2.42273082,19.0033297 C2.44043936,19.9310613 2.46409877,20.8883311 3.01955479,21.6506269 C3.58088959,22.4247164 4.49091264,22.7378795 5.36544657,23.0451638 C5.91498771,23.234259 6.4349906,23.4174394 6.80726617,23.6892345 C7.17362691,23.9551508 7.4986197,24.3865029 7.84727196,24.8474293 C8.38498334,25.5565274 8.99363701,26.36607 9.91545378,26.6674394 C10.1813701,26.7501392 10.4531652,26.7855924 10.7190815,26.7855924 C11.3454437,26.7855924 11.9718059,26.5965332 12.5863383,26.4133528 C13.1536241,26.2419661 13.6913716,26.0824452 14.1818001,26.0824452 C14.6663499,26.0824452 15.2040974,26.2419661 15.771347,26.4133528 C16.6517957,26.6792331 17.5618188,26.9510642 18.4422676,26.6674394 C19.3640844,26.36607 19.9727019,25.5565275 20.5104494,24.8474293 C20.8590656,24.3865029 21.1840944,23.9551508 21.5504552,23.6892345 C21.9227308,23.4174394 22.4427337,23.234259 22.9922748,23.0451638 C23.8727236,22.7378796 24.7767957,22.4247165 25.3440815,21.650627 C25.8995374,20.8883312 25.917282,19.9310613 25.9409054,19.0033297 C25.9527351,18.4183355 25.9645288,17.8628795 26.1063412,17.4196977 C26.2422749,17.0001392 26.5495231,16.5628723 26.8745519,16.1019819 C27.3886399,15.3633456 27.979549,14.5301436 27.979549,13.5433355 C27.979549,12.5565274 27.38864,11.7174105 26.874552,10.984689 Z M14.1797444,23.1983731 C8.85492636,23.1983731 4.5229395,18.8660977 4.5229395,13.5412797 C4.5229395,8.21646174 8.85492636,3.88447487 14.1797444,3.88447487 C19.5045624,3.88447487 23.8368378,8.21646174 23.8368378,13.5412798 C23.8368378,18.8660978 19.5045624,23.1983731 14.1797444,23.1983731 Z" id="Shape"></path>
                    </g>
                </g>
            </g>
        </g>
    </g>
</svg>