<?xml version="1.0" encoding="UTF-8"?>
<svg width="51px" height="60px" viewBox="0 0 51 60" version="1.1" xmlns="http://www.w3.org/2000/svg" xmlns:xlink="http://www.w3.org/1999/xlink">
    <!-- Generator: Sketch 58 (84663) - https://sketch.com -->
    <title>noun_Home Protect_644016</title>
    <desc>Created with Sketch.</desc>
    <g id="AU-Users" stroke="none" stroke-width="1" fill="none" fill-rule="evenodd">
        <g id="Register-Options" transform="translate(-965.000000, -396.000000)" fill="#9F2241" fill-rule="nonzero">
            <g id="Group-6-Copy-2" transform="translate(870.000000, 356.000000)">
                <g id="noun_Home-Protect_644016" transform="translate(95.000000, 40.000000)">
                    <g id="Group">
                        <path d="M48.4615385,50.7692308 L31.9038462,50.7692308 C31.2069231,48.8076923 29.6538462,47.2546154 27.6923077,46.5576923 L27.6923077,43.8461538 L41.5384615,43.8461538 C42.8123077,43.8461538 43.8461538,42.8123077 43.8461538,41.5384615 L43.8461538,24.0323077 L46.83,27.0161538 C47.2811538,27.4673077 47.8707692,27.6923077 48.4615385,27.6923077 C49.0523077,27.6923077 49.6419231,27.4673077 50.0930769,27.0161538 C50.9942308,26.115 50.9942308,24.6542308 50.0930769,23.7530769 L27.0161538,0.676153846 C26.115,-0.225 24.6530769,-0.225 23.7530769,0.676153846 L0.676153846,23.7530769 C-0.225,24.6542308 -0.225,26.115 0.676153846,27.0161538 C1.12615385,27.4673077 1.71692308,27.6923077 2.30769231,27.6923077 C2.89846154,27.6923077 3.48923077,27.4673077 3.93923077,27.0161538 L6.92307692,24.0323077 L6.92307692,41.5384615 C6.92307692,42.8123077 7.95692308,43.8461538 9.23076923,43.8461538 L23.0769231,43.8461538 L23.0769231,46.5576923 C21.1153846,47.2546154 19.5623077,48.8076923 18.8653846,50.7692308 L2.30769231,50.7692308 C1.03384615,50.7692308 0,51.8030769 0,53.0769231 C0,54.3507692 1.03384615,55.3846154 2.30769231,55.3846154 L18.8653846,55.3846154 C19.8184615,58.0684615 22.3765385,60 25.3846154,60 C28.3926923,60 30.9496154,58.0684615 31.9038462,55.3846154 L48.4615385,55.3846154 C49.7353846,55.3846154 50.7692308,54.3507692 50.7692308,53.0769231 C50.7692308,51.8030769 49.7353846,50.7692308 48.4615385,50.7692308 Z M16.1538462,27.6923077 L16.1538462,20.7692308 L18.4615385,20.7692308 C19.7342308,20.7692308 20.7692308,19.7342308 20.7692308,18.4615385 L20.7692308,16.1538462 L30,16.1538462 L30,18.4615385 C30,19.7342308 31.035,20.7692308 32.3076923,20.7692308 L34.6153846,20.7692308 L34.6153846,27.6923077 C34.6153846,32.7542308 27.7119231,36.1015385 26.3273077,36.7211538 L25.3846154,37.1434615 L24.4419231,36.7211538 C23.0573077,36.1015385 16.1538462,32.7542308 16.1538462,27.6923077 Z" id="Shape"></path>
                        <path d="M30,27.6923077 L30,24.9888462 C28.0361538,24.2919231 26.4761538,22.7330769 25.7803846,20.7692308 L24.9888462,20.7692308 C24.2919231,22.7330769 22.7330769,24.2930769 20.7692308,24.9888462 L20.7692308,27.6923077 C20.7692308,28.8911538 23.0446154,30.7961538 25.3846154,32.0434615 C27.7246154,30.7961538 30,28.8911538 30,27.6923077 Z" id="Path"></path>
                    </g>
                </g>
            </g>
        </g>
    </g>
</svg>