<?xml version="1.0" encoding="UTF-8"?>
<svg width="31px" height="30px" viewBox="0 0 31 30" version="1.1" xmlns="http://www.w3.org/2000/svg" xmlns:xlink="http://www.w3.org/1999/xlink">
    <!-- Generator: Sketch 58 (84663) - https://sketch.com -->
    <title>noun_Pie Chart_210904</title>
    <desc>Created with Sketch.</desc>
    <g id="AU-Users" stroke="none" stroke-width="1" fill="none" fill-rule="evenodd">
        <g id="Opened-News" transform="translate(-681.000000, -648.000000)" fill="#58595B" fill-rule="nonzero">
            <g id="Group-6" transform="translate(150.000000, 221.000000)">
                <g id="Group-8" transform="translate(530.000000, 427.000000)">
                    <g id="noun_Pie-Chart_210904" transform="translate(1.000000, 0.000000)">
                        <g id="Group">
                            <path d="M15.25,15 L15.25,2.013 L15.25,0.013 C15.166,0.012 15.084,0 15,0 C14.407,0 13.825,0.044 13.25,0.111 C5.802,0.982 0,7.322 0,15 C0,23.271 6.729,30 15,30 C22.592,30 28.868,24.327 29.851,17 C29.939,16.344 30,15.68 30,15 L28,15 L15.25,15 Z M15,28 C7.832,28 2,22.168 2,15 C2,8.426 6.908,2.991 13.25,2.132 L13.25,17 L27.83,17 C26.862,23.22 21.486,28 15,28 Z" id="Shape"></path>
                            <path d="M30.158,13 C30.117,12.663 30.065,12.329 29.998,12 C28.819,6.216 24.148,1.641 18.4,0.365 C18.011,0.279 17.668,0.211 17.25,0.156 L17.25,13 L28.719,13 L30.158,13 Z" id="Path"></path>
                        </g>
                    </g>
                </g>
            </g>
        </g>
    </g>
</svg>