<?xml version="1.0" encoding="UTF-8"?>
<svg width="73px" height="60px" viewBox="0 0 73 60" version="1.1" xmlns="http://www.w3.org/2000/svg" xmlns:xlink="http://www.w3.org/1999/xlink">
    <!-- Generator: Sketch 58 (84663) - https://sketch.com -->
    <title>noun_users_305946</title>
    <desc>Created with Sketch.</desc>
    <g id="AU-Users" stroke="none" stroke-width="1" fill="none" fill-rule="evenodd">
        <g id="Register-Options" transform="translate(-684.000000, -396.000000)" fill="#9F2241" fill-rule="nonzero">
            <g id="Group-6-Copy" transform="translate(600.000000, 356.000000)">
                <g id="noun_users_305946" transform="translate(84.000000, 40.000000)">
                    <g id="Group">
                        <path d="M36.4872973,12.0956757 C30.6721622,12.0956757 26.7210811,16.6289189 26.7210811,22.2227027 C26.7210811,27.8148649 30.6721622,32.3505405 36.4872973,32.3505405 C42.3,32.3505405 46.251892,27.8148649 46.251892,22.2227027 C46.2527027,16.6289189 42.3008108,12.0956757 36.4872973,12.0956757 Z" id="Path"></path>
                        <path d="M36.4864865,34.6751351 C36.4605405,34.6751351 36.4354054,34.6702703 36.4078378,34.6702703 L36.4078378,34.6791892 C26.9918919,34.7610811 19.3824324,42.1216216 19.3824324,51.2010811 C19.512973,53.8694595 20.4608108,56.8613514 22.0021622,58.5713514 C23.4794595,60.3 50.4121622,60.1727027 50.9716216,58.5713514 C52.512973,56.8621622 53.4591892,53.8694595 53.5905405,51.2010811 C53.5905405,42.1216216 45.9818919,34.7610811 36.5651351,34.6791892 L36.5651351,34.6702703 C36.54,34.6702703 36.5124324,34.6751351 36.4864865,34.6751351 Z" id="Path"></path>
                        <path d="M55.8689189,20.4364865 C61.6824324,20.4364865 65.6327027,15.9 65.6327027,10.3078378 C65.6327027,4.71567568 61.6824324,0.180810811 55.8689189,0.180810811 C50.0537838,0.180810811 46.1035135,4.71567568 46.1035135,10.3078378 C46.1035135,15.9 50.0537838,20.4364865 55.8689189,20.4364865 Z" id="Path"></path>
                        <path d="M17.1064865,0.180810811 C11.2913514,0.180810811 7.34027027,4.71567568 7.34027027,10.3078378 C7.34027027,15.9 11.2913514,20.4364865 17.1064865,20.4364865 C22.9191892,20.4364865 26.8702703,15.9 26.8702703,10.3078378 C26.8702703,4.71567568 22.9191892,0.180810811 17.1064865,0.180810811 Z" id="Path"></path>
                        <path d="M55.9467568,22.7643243 L55.9467568,22.7562162 C55.9216216,22.7562162 55.8956757,22.7594595 55.8672973,22.7594595 C55.8413514,22.7594595 55.8154054,22.7562162 55.7894595,22.7562162 L55.7894595,22.7643243 C53.2751351,22.7845946 50.8921622,23.3302703 48.7467568,24.2837838 C48.1905405,28.1189189 46.0945946,31.29 43.0751351,33.1597297 C49.6905405,35.4624324 54.6972973,41.0789189 55.9337838,47.9051351 C63.0162162,47.8994595 70.0694595,47.4681081 70.3516216,46.6564865 C71.892973,44.9464865 72.8391892,41.9545946 72.9713516,39.2862162 C72.972973,30.2075676 65.3635135,22.8454054 55.9467568,22.7643243 Z" id="Path"></path>
                        <path d="M17.0375676,47.9051351 C18.2756757,41.0797297 23.2824324,35.4624324 29.8978378,33.1597297 C26.8791892,31.29 24.7897297,28.1189189 24.2327027,24.287027 C22.0848649,23.3310811 19.6994595,22.7845946 17.1835135,22.7643243 L17.1835135,22.7562162 C17.1575676,22.7562162 17.1308108,22.7594595 17.1048649,22.7594595 C17.0789189,22.7594595 17.052973,22.7562162 17.0254054,22.7562162 L17.0254054,22.7643243 C7.60864865,22.8454054 0,30.2075676 0,39.2862162 C0.132162162,41.9545946 1.07837838,44.9456757 2.62054054,46.6564865 C3.34459459,47.5037838 10.1854054,47.9043243 17.0375676,47.9051351 Z" id="Path"></path>
                    </g>
                </g>
            </g>
        </g>
    </g>
</svg>