<?xml version="1.0" encoding="UTF-8"?>
<svg width="361px" height="164px" viewBox="0 0 361 164" version="1.1" xmlns="http://www.w3.org/2000/svg" xmlns:xlink="http://www.w3.org/1999/xlink">
    <!-- Generator: Sketch 63.1 (92452) - https://sketch.com -->
    <title>Group 3</title>
    <desc>Created with Sketch.</desc>
    <g id="AU-Users" stroke="none" stroke-width="1" fill="none" fill-rule="evenodd">
        <g id="Create-Resouces" transform="translate(-462.000000, -763.000000)">
            <g id="Group-3" transform="translate(462.000000, 763.000000)">
                <rect id="Rectangle-Copy-3" fill="#FFFFFF" x="0" y="0" width="361" height="164" rx="2"></rect>
                <g id="noun_add_8557" transform="translate(161.000000, 45.000000)" fill="#58595B" fill-rule="nonzero">
                    <g id="Group">
                        <path d="M20,0.0008 C8.972,0.0008 0,8.9724 0,20 C0,31.0276 8.972,39.9988 20,39.9988 C31.0288,39.9988 40,31.0276 40,20 C40,8.9724 31.0288,0.0008 20,0.0008 Z M20,37.6916 C10.2444,37.6916 2.3076,29.7556 2.3076,20 C2.3076,10.2448 10.2444,2.3084 20,2.3084 C29.7556,2.3084 37.6924,10.2448 37.6924,20 C37.6924,29.7556 29.7556,37.6916 20,37.6916 Z" id="Shape"></path>
                        <path d="M26.498,18.846 L21.154,18.846 L21.154,13.5016 C21.154,12.8644 20.638,12.348 20,12.348 C19.3628,12.348 18.8464,12.8648 18.8464,13.5016 L18.8464,18.846 L13.502,18.846 C12.8648,18.846 12.3484,19.3628 12.3484,19.9996 C12.3484,20.6372 12.8652,21.1536 13.502,21.1536 L18.8464,21.1536 L18.8464,26.4972 C18.8464,27.134 19.3632,27.6512 20,27.6512 C20.638,27.6512 21.154,27.134 21.154,26.4972 L21.154,21.154 L26.498,21.154 C27.1348,21.154 27.652,20.6376 27.652,20 C27.652,19.3628 27.1348,18.846 26.498,18.846 Z" id="Path"></path>
                    </g>
                </g>
                <text id="Upload-File" opacity="0.599999964" font-family="ArialMT, Arial" font-size="14" font-weight="normal" fill="#58595B">
                    <tspan x="145" y="116">Upload File</tspan>
                </text>
            </g>
        </g>
    </g>
</svg>