<?xml version="1.0" encoding="UTF-8"?>
<svg width="20px" height="21px" viewBox="0 0 20 21" version="1.1" xmlns="http://www.w3.org/2000/svg" xmlns:xlink="http://www.w3.org/1999/xlink">
    <!-- Generator: Sketch 58 (84663) - https://sketch.com -->
    <title>web</title>
    <desc>Created with Sketch.</desc>
    <g id="AU-Users" stroke="none" stroke-width="1" fill="none" fill-rule="evenodd">
        <g id="Program-Page" transform="translate(-170.000000, -593.000000)" fill="#58595B" fill-rule="nonzero">
            <g id="web" transform="translate(170.000000, 593.000000)">
                <g id="Group">
                    <polygon id="Path" points="11.7579 9.3471 11.7579 19.9101 14.4774 17.1927 16.4514 21 17.8857 20.2566 15.9852 16.5942 19.6539 16.5942"></polygon>
                    <path d="M19.8849,11.2896 C19.9038,11.151 19.9269,11.0124 19.9416,10.8696 C19.9731,10.5525 19.992,10.2396 19.992,9.9078 C19.992,9.576 19.9752,9.2778 19.9458,8.9712 C19.9311,8.8074 19.9038,8.6478 19.8807,8.4882 C19.8639,8.3748 19.8534,8.2593 19.8345,8.148 L19.8345,8.148 C19.0967959,4.08524975 15.9172503,0.905704068 11.8545,0.168 L11.8545,0.168 C11.7117,0.1365 11.5794,0.1239 11.4492,0.105 C11.319,0.0861 11.1657,0.0609 11.0292,0.0462 C10.71,0.0168 10.3971,0 10.08,0 C9.7629,0 9.45,0.0168 9.1392,0.0462 C8.9943,0.0609 8.8536,0.084 8.7192,0.105 C8.5848,0.126 8.4546,0.1344 8.3265,0.1575 L8.3265,0.1575 C4.26374975,0.895204068 1.08420407,4.07474975 0.3465,8.1375 L0.3465,8.1375 C0.3255,8.2572 0.315,8.3811 0.2961,8.5029 C0.2772,8.6247 0.2289,8.82 0.21,8.9733 C0.1806,9.282 0.1638,9.6033 0.1638,9.912 C0.1638,10.2207 0.1806,10.542 0.21,10.8486 C0.2247,11.0103 0.252,11.1657 0.2751,11.3253 C0.2919,11.4408 0.3024,11.5584 0.3234,11.6739 L0.3234,11.6739 C1.06110407,15.7366503 4.24064975,18.9161959 8.3034,19.6539 L8.3034,19.6539 C8.4252,19.6749 8.5491,19.6875 8.6709,19.7043 C8.7927,19.7211 8.9733,19.7505 9.1287,19.7652 C9.4374,19.7946 9.7587,19.8114 10.0653,19.8114 L10.0947,19.8114 L10.0947,17.5014 L10.08,17.5014 C9.64476698,17.4988079 9.2105646,17.4587602 8.7822,17.3817 C8.38630413,16.1072796 8.11759281,14.7967843 7.98,13.4694 C8.6625,13.5114 9.366,13.5366 10.08,13.5366 L10.1094,13.5366 L10.1094,12.2157 L10.08,12.2157 C9.2883,12.2157 8.5449,12.1884 7.8498,12.1422 C7.8015,11.4471 7.77,10.71 7.77,9.912 C7.77,9.114 7.7973,8.3769 7.8435,7.6797 C8.5407,7.6335 9.2841,7.6062 10.0758,7.6062 C10.8675,7.6062 11.6088,7.6335 12.3039,7.6797 C12.3039,7.7196 12.3039,7.7574 12.3039,7.7994 C12.510009,7.87205396 12.6993011,7.98562924 12.8604,8.1333 L13.6731,8.8788 C13.6626,8.5134 13.6416,8.1585 13.6185,7.8036 C14.957278,7.94094175 16.2790811,8.21107075 17.5644,8.61 C17.6404089,9.03847208 17.6797514,9.47264414 17.682,9.9078 C17.6815547,10.3421585 17.6436138,10.7756678 17.5686,11.2035 C17.2557,11.3064 16.9239,11.4135 16.548,11.5017 L17.325,12.2136 L17.325,12.2136 L19.1562,13.8936 C19.4648977,13.1838383 19.6890377,12.4402293 19.824,11.6781 L19.824,11.6781 C19.8555,11.55 19.8681,11.4156 19.8849,11.2896 Z M7.2849,2.8518 C6.9787927,4.03904847 6.76396582,5.24797621 6.6423,6.468 C5.42301816,6.58894376 4.21478665,6.80306963 3.0282,7.1085 C3.80258071,5.16832635 5.33785977,3.63001164 7.2765,2.8518 L7.2849,2.8518 Z M7.2849,16.9743 C5.33935087,16.1996258 3.79734921,14.6599019 3.0198,12.7155 C4.20632405,13.0216707 5.41455876,13.2364992 6.6339,13.3581 C6.7551281,14.5773426 6.96925013,15.7855525 7.2744,16.9722 L7.2849,16.9743 Z M6.5226,12.0204 C5.19009279,11.8813716 3.87465643,11.6105465 2.5956,11.2119 C2.43675745,10.3532846 2.43675745,9.4728154 2.5956,8.6142 C3.87465643,8.21555352 5.19009279,7.94472839 6.5226,7.8057 C6.4806,8.4882 6.4554,9.1917 6.4554,9.9057 C6.4554,10.6197 6.4806,11.34 6.5226,12.0204 Z M10.08,6.2874 C9.3597,6.2874 8.6562,6.3105 7.98,6.3525 C8.11893273,5.01997799 8.38975979,3.70453224 8.7885,2.4255 C9.64639397,2.26648828 10.526206,2.26648828 11.3841,2.4255 C11.7785577,3.70568865 12.0451608,5.02182159 12.18,6.3546 C11.5038,6.3105 10.8003,6.2874 10.08,6.2874 Z M13.5219,6.4659 C13.4007696,5.24595233 13.1866469,4.03703702 12.8814,2.8497 C14.8245647,3.62580457 16.3640954,5.1653353 17.1402,7.1085 C15.9523076,6.8020861 14.7426583,6.58725576 13.5219,6.4659 L13.5219,6.4659 Z" id="Shape"></path>
                </g>
            </g>
        </g>
    </g>
</svg>