<?xml version="1.0" encoding="UTF-8"?>
<svg width="21px" height="19px" viewBox="0 0 21 19" version="1.1" xmlns="http://www.w3.org/2000/svg" xmlns:xlink="http://www.w3.org/1999/xlink">
    <!-- Generator: Sketch 58 (84663) - https://sketch.com -->
    <title>address</title>
    <desc>Created with Sketch.</desc>
    <g id="AU-Users" stroke="none" stroke-width="1" fill="none" fill-rule="evenodd">
        <g id="Program-Page" transform="translate(-170.000000, -530.000000)" fill="#58595B" fill-rule="nonzero">
            <path d="M177.737776,541.583121 L178.503587,543.156061 L174.317153,543.156061 L173.858159,544.179276 L177.300981,546.233766 L182.414528,544.082929 L187.519689,545.022108 L186.682847,543.156061 L182.496165,543.156061 L183.262223,541.583121 L187.672851,541.583121 L191,549 L170,549 L173.327147,541.583121 L177.737776,541.583121 Z M182.467308,544.58737 L177.264231,546.775947 L173.658629,544.624098 L172.401268,547.427318 L188.59873,547.427318 L187.761641,545.561271 L182.467308,544.58737 Z M180.412651,530.000913 L180.634294,530.002189 C182.068789,530.04884 183.381466,530.836762 184.118054,532.093283 C184.854643,533.349804 184.913935,534.902276 184.275412,536.213445 L184.275412,536.213445 L180.499877,543.965937 L176.724587,536.213445 C176.064803,534.858617 176.151429,533.249799 176.952705,531.976831 C177.753981,530.703864 179.152034,529.95401 180.634294,530.002189 Z M180.450795,532.581986 C179.539634,532.609172 178.814845,533.370495 178.814845,534.300348 C178.823057,535.243764 179.575116,536.004142 180.5,536.004142 C181.424884,536.004142 182.176943,535.243764 182.185154,534.300348 C182.185154,533.835727 182.000804,533.390888 181.674076,533.067173 C181.347347,532.743458 180.906077,532.568438 180.450795,532.581986 Z" id="address"></path>
        </g>
    </g>
</svg>