<?xml version="1.0" encoding="UTF-8"?>
<svg width="13px" height="13px" viewBox="0 0 13 13" version="1.1" xmlns="http://www.w3.org/2000/svg" xmlns:xlink="http://www.w3.org/1999/xlink">
    <!-- Generator: Sketch 58 (84663) - https://sketch.com -->
    <title>Path</title>
    <desc>Created with Sketch.</desc>
    <g id="AU-Users" stroke="none" stroke-width="1" fill="none" fill-rule="evenodd">
        <g id="Home" transform="translate(-1417.000000, -1223.000000)" fill="#D4D4D4" fill-rule="nonzero">
            <g id="Group-12" transform="translate(1074.000000, 1213.000000)">
                <path d="M354.806187,10.2050624 L349.5,15.5080704 L344.193813,10.2050624 C343.920396,9.93164588 343.478479,9.93164588 343.205062,10.2050624 C342.931646,10.4784788 342.931646,10.9203962 343.205062,11.1938127 L348.51125,16.5 L343.205062,21.8030081 C342.931646,22.0764246 342.931646,22.5183419 343.205062,22.7917584 C343.478479,23.0651749 343.920396,23.0651749 344.193813,22.7917584 L349.5,17.4887503 L354.806187,22.7949376 C355.079604,23.0683541 355.521521,23.0683541 355.794938,22.7949376 C356.068354,22.5215212 356.068354,22.0796038 355.794938,21.8061873 L350.48875,16.5 L355.794938,11.1938127 C356.068354,10.9203962 356.068354,10.4784788 355.794938,10.2050624 C355.521521,9.93164588 355.076425,9.93164588 354.806187,10.2050624 Z" id="Path"></path>
            </g>
        </g>
    </g>
</svg>