<?xml version="1.0" encoding="UTF-8"?>
<svg width="36px" height="36px" viewBox="0 0 36 36" version="1.1" xmlns="http://www.w3.org/2000/svg" xmlns:xlink="http://www.w3.org/1999/xlink">
    <title>Country profile</title>
    <g id="Page-1" stroke="none" stroke-width="1" fill="none" fill-rule="evenodd">
        <g id="Home" transform="translate(-570.000000, -802.000000)" fill="#FFFFFF" fill-rule="nonzero">
            <g id="Group-7-Copy" transform="translate(468.000000, 790.000000)">
                <g id="Group-9" transform="translate(90.000000, 0.000000)">
                    <g id="Group" transform="translate(12.000000, 12.000000)">
                        <path d="M33.8895,11.2755 C33.612,11.8665 33.309,12.4665 32.988,13.065 C33.426,14.3925 33.705,15.7935 33.7725,17.2515 L30.531,17.2515 C30.1545,17.8455 29.82,18.357 29.5605,18.7515 L33.774,18.7515 C33.645,21.492 32.8185,24.045 31.4655,26.2515 L26.5995,26.2515 C27.072,24.6855 27.396,22.9605 27.576,21.1335 L26.517,19.605 C26.493,19.572 26.3775,19.4025 26.205,19.146 C26.1015,21.7185 25.6725,24.1455 24.9765,26.25 L18.75,26.25 L18.75,18.75 L25.9395,18.75 C25.6785,18.3555 25.3455,17.844 24.969,17.25 L18.75,17.25 L18.75,9.75 L20.94,9.75 C20.727,9.2685 20.5695,8.769 20.463,8.25 L18.75,8.25 L18.75,2.325 C19.5555,2.472 20.3295,2.859 21.057,3.435 C21.4395,2.667 21.93,1.9665 22.5405,1.374 C21.0915,0.9795 19.575,0.75 18,0.75 C8.4735,0.75 0.75,8.4735 0.75,18 C0.75,27.528 8.4735,35.25 18,35.25 C27.528,35.25 35.25,27.528 35.25,18 C35.25,15.615 34.7655,13.3425 33.8895,11.2755 Z M13.1835,2.943 C11.868,4.2405 10.7475,6.054 9.9105,8.25 L5.577,8.25 C7.509,5.7945 10.143,3.9195 13.1835,2.943 Z M4.536,9.75 L9.399,9.75 C8.727,11.982 8.334,14.529 8.271,17.25 L2.226,17.25 C2.355,14.5095 3.1815,11.9535 4.536,9.75 Z M2.226,18.75 L8.271,18.75 C8.334,21.471 8.727,24.018 9.4005,26.25 L4.536,26.25 C3.18,24.0435 2.355,21.4905 2.226,18.75 Z M5.577,27.75 L9.912,27.75 C10.749,29.946 11.8695,31.7595 13.185,33.057 C10.143,32.0835 7.509,30.2085 5.577,27.75 Z M17.25,33.675 C14.9865,33.264 12.957,31.0185 11.5815,27.75 L17.25,27.75 L17.25,33.675 Z M17.25,26.25 L11.025,26.25 C10.2915,24.0345 9.8415,21.471 9.771,18.75 L17.25,18.75 L17.25,26.25 Z M17.25,17.25 L9.771,17.25 C9.8415,14.5275 10.2915,11.9655 11.025,9.75 L17.25,9.75 L17.25,17.25 Z M17.25,8.25 L11.5815,8.25 C12.957,4.98 14.9865,2.736 17.25,2.325 L17.25,8.25 Z M18.75,33.675 L18.75,27.75 L24.4185,27.75 C23.0415,31.02 21.0135,33.264 18.75,33.675 Z M22.815,33.057 C24.1305,31.761 25.251,29.9475 26.0895,27.75 L30.426,27.75 C28.491,30.2085 25.854,32.0835 22.815,33.057 Z" id="Shape"></path>
                        <path d="M21.8205,7.452 C21.915,8.244 22.1565,8.982 22.5285,9.648 C24.1455,13.548 27.75,18.75 27.75,18.75 C27.75,18.75 31.3545,13.548 32.9715,9.6495 C33.3435,8.982 33.585,8.244 33.6795,7.452 C33.7245,7.1985 33.75,6.963 33.75,6.75 C33.75,3.4365 31.0635,0.75 27.75,0.75 C24.4365,0.75 21.75,3.4365 21.75,6.75 C21.75,6.963 21.7755,7.1985 21.8205,7.452 Z M27.75,3.75 C29.406,3.75 30.75,5.094 30.75,6.75 C30.75,8.406 29.406,9.75 27.75,9.75 C26.094,9.75 24.75,8.406 24.75,6.75 C24.75,5.094 26.094,3.75 27.75,3.75 Z" id="Shape"></path>
                    </g>
                </g>
            </g>
        </g>
    </g>
</svg>