<?xml version="1.0" encoding="UTF-8"?>
<svg width="28px" height="28px" viewBox="0 0 28 28" version="1.1" xmlns="http://www.w3.org/2000/svg" xmlns:xlink="http://www.w3.org/1999/xlink">
    <!-- Generator: Sketch 58 (84663) - https://sketch.com -->
    <title>noun_date_2080615</title>
    <desc>Created with Sketch.</desc>
    <g id="AU-Users" stroke="none" stroke-width="1" fill="none" fill-rule="evenodd">
        <g id="Event" transform="translate(-415.000000, -650.000000)" fill="#58595B" fill-rule="nonzero">
            <g id="Group-6" transform="translate(150.000000, 221.000000)">
                <g id="Group-7" transform="translate(265.000000, 429.000000)">
                    <g id="noun_date_2080615" transform="translate(0.000000, 0.000000)">
                        <g id="Group">
                            <path d="M23.9414805,3.27865025 L22.2608593,3.27865025 L22.2608593,2.30887097 C22.2608593,1.11090832 21.2583835,0.141129032 20.0200311,0.141129032 C18.7816787,0.141129032 17.7792029,1.11090832 17.7792029,2.30887097 L17.7792029,3.27865025 L9.34661245,3.27865025 L9.34661245,2.30887097 C9.34661245,1.11090832 8.34413667,0.141129032 7.10578423,0.141129032 C5.86743179,0.141129032 4.86495601,1.11090832 4.86495601,2.30887097 L4.86495601,3.27865025 L3.15485026,3.27865025 C1.44474451,3.27865025 0,4.64775042 0,6.35912564 L0,24.1574278 C0,25.8688031 1.44474451,27.2379032 3.18433484,27.2379032 L23.9119959,27.2379032 C25.6810708,27.2379032 27.0963307,25.8688031 27.0963307,24.1574278 L27.0963307,6.35912564 C27.1258153,4.64775042 25.6810708,3.27865025 23.9414805,3.27865025 Z M19.1060091,2.30887097 C19.1060091,1.82398132 19.7382671,1.45318336 20.4608478,1.45318336 C21.1834284,1.45318336 21.8156865,1.85250424 21.8156865,2.30887097 L21.8156865,4.3339983 C21.8156865,4.81888795 21.1834284,5.18968591 20.4608478,5.18968591 C19.7382671,5.18968591 19.1060091,4.79036503 19.1060091,4.3339983 L19.1060091,2.30887097 Z M6.22124677,2.30887097 C6.22124677,1.82398132 6.85350484,1.45318336 7.57608548,1.45318336 C8.34382742,1.45318336 8.93092419,1.85250424 8.93092419,2.30887097 L8.93092419,4.3339983 C8.93092419,4.81888795 8.29866613,5.18968591 7.57608548,5.18968591 C6.80834355,5.18968591 6.22124677,4.79036503 6.22124677,4.3339983 L6.22124677,2.30887097 Z M25.7695246,24.1574278 C25.7695246,25.1557301 24.9439563,25.9258489 23.9414805,25.9258489 L3.18433484,25.9258489 C2.18185906,25.9258489 1.35629077,25.1272071 1.35629077,24.1574278 L1.35629077,9.21141766 L25.7695246,9.21141766 L25.7695246,24.1574278 Z" id="Shape"></path>
                            <ellipse id="Oval" cx="6.3029453" cy="20.9153226" rx="1.914446" ry="1.83467742"></ellipse>
                            <ellipse id="Oval" cx="13.5189341" cy="20.9153226" rx="1.914446" ry="1.83467742"></ellipse>
                            <ellipse id="Oval" cx="20.7349229" cy="20.9153226" rx="1.914446" ry="1.83467742"></ellipse>
                            <ellipse id="Oval" cx="6.3029453" cy="13.9435484" rx="1.914446" ry="1.83467742"></ellipse>
                            <ellipse id="Oval" cx="13.5189341" cy="13.9435484" rx="1.914446" ry="1.83467742"></ellipse>
                            <ellipse id="Oval" cx="20.7349229" cy="13.9435484" rx="1.914446" ry="1.83467742"></ellipse>
                        </g>
                    </g>
                </g>
            </g>
        </g>
    </g>
</svg>