<?xml version="1.0" encoding="UTF-8"?>
<svg width="21px" height="17px" viewBox="0 0 21 17" version="1.1" xmlns="http://www.w3.org/2000/svg" xmlns:xlink="http://www.w3.org/1999/xlink">
    <!-- Generator: Sketch 58 (84663) - https://sketch.com -->
    <title>email</title>
    <desc>Created with Sketch.</desc>
    <g id="AU-Users" stroke="none" stroke-width="1" fill="none" fill-rule="evenodd">
        <g id="Program-Page" transform="translate(-170.000000, -636.000000)" fill="#58595B" fill-rule="nonzero">
            <g id="email" transform="translate(170.000000, 636.000000)">
                <path d="M13.806383,10.3659574 C13.3819149,11.0361702 13.1361702,11.8404255 13.1361702,12.6893617 C13.1361702,13.1138298 13.2031915,13.5382979 13.3148936,13.9180851 L2.41276596,13.9180851 C1.16170213,13.9180851 0.134042553,12.8904255 0.134042553,11.6393617 L0.134042553,2.32340426 C0.134042553,1.07234043 1.16170213,0.0446808511 2.41276596,0.0446808511 L16.0851064,0.0446808511 C17.3361702,0.0446808511 18.3638298,1.07234043 18.3638298,2.32340426 L18.3638298,8.4 C18.0957447,8.35531915 17.8053191,8.3106383 17.5148936,8.3106383 C16.3531915,8.3106383 15.3031915,8.75744681 14.4989362,9.51702128 L11.706383,6.88085106 L16.0404255,3.21702128 C16.2861702,3.01595745 16.3085106,2.65851064 16.1074468,2.43510638 C15.906383,2.1893617 15.5489362,2.16702128 15.3255319,2.36808511 L9.24893617,7.50638298 L3.17234043,2.36808511 C2.92659574,2.16702128 2.59148936,2.1893617 2.39042553,2.43510638 C2.1893617,2.68085106 2.21170213,3.01595745 2.45744681,3.21702128 L6.79148936,6.88085106 L2.43510638,10.9691489 C2.21170213,11.1702128 2.1893617,11.5276596 2.41276596,11.7510638 C2.52446809,11.862766 2.68085106,11.9297872 2.81489362,11.9297872 C2.94893617,11.9297872 3.08297872,11.8851064 3.19468085,11.7734043 L7.66276596,7.59574468 L8.91382979,8.64574468 C9.02553191,8.73510638 9.13723404,8.77978723 9.2712766,8.77978723 C9.40531915,8.77978723 9.5393617,8.73510638 9.6287234,8.64574468 L10.8797872,7.59574468 L13.806383,10.3659574 Z M20.5978723,11.237234 C20.8659574,11.9744681 20.9106383,12.7340426 20.7542553,13.5159574 C20.7095745,13.7617021 20.5978723,13.9851064 20.4414894,14.1638298 C20.1734043,14.4542553 19.8159574,14.543617 19.4361702,14.4989362 C19.1234043,14.4765957 18.8329787,14.3648936 18.6095745,14.1191489 C18.5648936,14.0744681 18.5425532,14.0968085 18.5202128,14.1191489 C18.2968085,14.2978723 18.0734043,14.4095745 17.7829787,14.4542553 C17.0010638,14.5882979 15.9510638,14.2308511 15.75,13.0244681 C15.6829787,12.6446809 15.7053191,12.287234 15.8617021,11.9297872 C16.1521277,11.2595745 16.6659574,10.9244681 17.3808511,10.9021277 C17.7159574,10.8797872 18.0287234,10.9468085 18.3191489,11.1255319 C18.3638298,11.1478723 18.3861702,11.1478723 18.4085106,11.1255319 C18.5425532,11.0138298 18.6765957,10.9914894 18.8329787,11.0585106 C18.9893617,11.1255319 19.056383,11.2595745 19.056383,11.4159574 C19.056383,11.706383 19.056383,12.0191489 19.056383,12.3319149 C19.056383,12.6223404 19.056383,12.912766 19.056383,13.2031915 C19.056383,13.2925532 19.0787234,13.4042553 19.1010638,13.493617 C19.1234043,13.5829787 19.1904255,13.65 19.2574468,13.6946809 C19.4361702,13.7840426 19.6148936,13.7840426 19.793617,13.7393617 C19.8829787,13.7170213 19.9276596,13.6276596 19.9723404,13.5382979 C20.0393617,13.3595745 20.0617021,13.1808511 20.0840426,13.0021277 C20.106383,12.5329787 20.0840426,12.0414894 19.9276596,11.5946809 C19.7042553,10.9468085 19.2574468,10.5223404 18.6095745,10.3212766 C17.9393617,10.1202128 17.2691489,10.0978723 16.6212766,10.3212766 C15.6829787,10.656383 15.1691489,11.3265957 15.012766,12.3095745 C14.9234043,12.912766 14.9904255,13.493617 15.2808511,14.0297872 C15.6606383,14.7670213 16.2861702,15.1468085 17.112766,15.2808511 C17.693617,15.3702128 18.2521277,15.2808511 18.7882979,15.012766 C18.9893617,14.9010638 19.212766,14.9680851 19.3244681,15.1691489 C19.4361702,15.3702128 19.3468085,15.593617 19.1680851,15.6829787 C18.587234,15.9957447 17.9840426,16.1297872 17.3361702,16.0851064 C16.7776596,16.0404255 16.2638298,15.906383 15.7946809,15.6159574 C15.012766,15.1468085 14.543617,14.4542553 14.3425532,13.5829787 C14.1414894,12.6670213 14.2531915,11.7734043 14.7446809,10.9691489 C15.2585106,10.1425532 16.0180851,9.65106383 16.9787234,9.49468085 C17.6712766,9.38297872 18.3638298,9.42765957 19.0340426,9.67340426 C19.7712766,9.89680851 20.3074468,10.4553191 20.5978723,11.237234 Z M18.2744681,12.3765957 C18.2744681,12.1531915 18.1851064,11.9968085 18.006383,11.8404255 C17.8723404,11.7287234 17.7382979,11.6840426 17.5595745,11.6617021 C17.112766,11.6170213 16.7776596,11.7734043 16.5989362,12.1308511 C16.4202128,12.4882979 16.4202128,12.8680851 16.5989362,13.2255319 C16.8670213,13.7840426 17.6712766,13.8957447 18.0957447,13.4489362 C18.2074468,13.337234 18.2744681,13.2031915 18.2744681,13.0244681 C18.2744681,12.912766 18.2744681,12.8010638 18.2744681,12.6893617 C18.2744681,12.6 18.2744681,12.4882979 18.2744681,12.3765957 Z" id="Shape"></path>
            </g>
        </g>
    </g>
</svg>