<?xml version="1.0" encoding="UTF-8"?>
<svg width="32px" height="32px" viewBox="0 0 32 32" version="1.1" xmlns="http://www.w3.org/2000/svg" xmlns:xlink="http://www.w3.org/1999/xlink">
    <!-- Generator: Sketch 58 (84663) - https://sketch.com -->
    <title>facebook</title>
    <desc>Created with Sketch.</desc>
    <g id="AU-Users" stroke="none" stroke-width="1" fill="none" fill-rule="evenodd">
        <g id="Home" transform="translate(-813.000000, -3144.000000)" fill="#58595B" fill-rule="nonzero">
            <g id="facebook" transform="translate(813.000000, 3144.000000)">
                <path d="M31.9376218,15.9688109 C31.9376218,7.15082848 24.7867934,0 15.9688109,0 C7.15082848,0 0,7.15082848 0,15.9688109 C0,24.7867934 7.15082848,31.9376218 15.9688109,31.9376218 C16.0626218,31.9376218 16.1559454,31.9356725 16.2495127,31.9339668 L16.2495127,19.502924 L12.8187135,19.502924 L12.8187135,15.5046296 L16.2495127,15.5046296 L16.2495127,12.5623782 C16.2495127,9.15009747 18.3326023,7.29288496 21.376462,7.29288496 C22.8340643,7.29288496 24.0869883,7.40155945 24.4522417,7.45004875 L24.4522417,11.0163256 L22.3533138,11.0163256 C20.6973685,11.0163256 20.3767056,11.8033626 20.3767056,12.9580897 L20.3767056,15.5046296 L24.3362573,15.5046296 L23.8201755,19.502924 L20.3767056,19.502924 L20.3767056,31.3206628 C27.0514133,29.4071638 31.9376218,23.2577972 31.9376218,15.9688109 Z"></path>
            </g>
        </g>
    </g>
</svg>