<?xml version="1.0" encoding="UTF-8"?>
<svg width="36px" height="39px" viewBox="0 0 36 39" version="1.1" xmlns="http://www.w3.org/2000/svg" xmlns:xlink="http://www.w3.org/1999/xlink">
    <title>Impact of Volunteerism</title>
    <g id="Page-1" stroke="none" stroke-width="1" fill="none" fill-rule="evenodd">
        <g id="Home" transform="translate(-836.000000, -800.000000)" fill="#FFFFFF">
            <g id="Group-7-Copy-2" transform="translate(734.000000, 790.000000)">
                <g id="Group-9" transform="translate(90.000000, 0.000000)">
                    <g id="Impact-of-Volunteerism" transform="translate(12.000000, 10.000000)">
                        <path d="M17.5102041,37.05 C17.993735,37.05 18.3857143,37.4419793 18.3857143,37.9255102 C18.3857143,38.4090411 17.993735,38.8010204 17.5102041,38.8010204 C17.0266731,38.8010204 16.6346939,38.4090411 16.6346939,37.9255102 C16.6346939,37.4419793 17.0266731,37.05 17.5102041,37.05 Z M23.0816327,35.8163265 C23.5651636,35.8163265 23.9571429,36.2083058 23.9571429,36.6918367 C23.9571429,37.1753677 23.5651636,37.5673469 23.0816327,37.5673469 C22.5981017,37.5673469 22.2061224,37.1753677 22.2061224,36.6918367 C22.2061224,36.2083058 22.5981017,35.8163265 23.0816327,35.8163265 Z M11.9785714,35.8163265 C12.4621024,35.8163265 12.8540816,36.2083058 12.8540816,36.6918367 C12.8540816,37.1753677 12.4621024,37.5673469 11.9785714,37.5673469 C11.4950405,37.5673469 11.1030612,37.1753677 11.1030612,36.6918367 C11.1030612,36.2083058 11.4950405,35.8163265 11.9785714,35.8163265 Z M5.77040816,29.727551 C6.80510204,29.727551 7.60102041,30.5632653 7.56122449,31.6377551 L7.56122449,31.6377551 L7.56122449,33.4285714 L0.198979592,33.4285714 L0.198979592,31.6377551 C0.198979592,30.5632653 1.03469388,29.727551 2.02959184,29.727551 L2.02959184,29.727551 Z M33.2295918,29.727551 C34.2244898,29.727551 35.0602041,30.5632653 35.0204082,31.6377551 L35.0204082,31.6377551 L35.0204082,33.4285714 L27.6581633,33.4285714 L27.6581633,31.6377551 C27.6581633,30.5632653 28.4938776,29.727551 29.4887755,29.727551 L29.4887755,29.727551 Z M3.93979592,24.8326531 C5.05408163,24.8326531 5.96938776,25.7479592 5.96938776,26.8622449 C5.96938776,27.9765306 5.05408163,28.8918367 3.93979592,28.8918367 C2.78571429,28.8918367 1.91020408,27.9765306 1.91020408,26.8622449 C1.91020408,25.7479592 2.8255102,24.8326531 3.93979592,24.8326531 Z M31.3591837,24.8326531 C32.4734694,24.8326531 33.3887755,25.7479592 33.3887755,26.8622449 C33.3887755,27.9765306 32.4734694,28.8918367 31.3591837,28.8918367 C30.244898,28.8918367 29.3295918,27.9765306 29.3295918,26.8622449 C29.3295918,25.7479592 30.244898,24.8326531 31.3591837,24.8326531 Z M33.5081633,18.7836735 C33.7469388,18.7040816 34.0255102,18.7836735 34.2244898,18.9030612 C34.4234694,19.0622449 34.5826531,19.2612245 34.622449,19.5 C34.7020408,19.7387755 34.622449,20.0173469 34.5030612,20.2163265 C34.3438776,20.4153061 34.144898,20.5744898 33.9061224,20.6142857 C33.8265306,20.6540816 33.7867347,20.6540816 33.7071429,20.6540816 C33.5081633,20.6540816 33.3489796,20.5744898 33.1897959,20.494898 C32.9908163,20.3357143 32.8316327,20.1367347 32.7918367,19.8979592 C32.7122449,19.6591837 32.7918367,19.3806122 32.9112245,19.1816327 C33.0306122,18.9428571 33.2693878,18.8234694 33.5081633,18.7836735 Z M1.13020408,18.1326122 L1.27346939,18.1469388 C1.5122449,18.1867347 1.75102041,18.3061224 1.87040816,18.544898 C1.98979592,18.7836735 2.02959184,19.022449 1.98979592,19.2612245 C1.91020408,19.6989796 1.5122449,20.0173469 1.0744898,20.0173469 C0.994897959,20.0173469 0.955102041,19.977551 0.875510204,19.977551 C0.636734694,19.9377551 0.397959184,19.7785714 0.278571429,19.5795918 C0.159183673,19.3408163 0.119387755,19.1020408 0.159183673,18.8632653 C0.198979592,18.6244898 0.358163265,18.3857143 0.557142857,18.2663265 C0.795918367,18.1469388 1.03469388,18.1071429 1.27346939,18.1469388 Z M32.4336735,12.177551 C32.672449,12.0979592 32.9510204,12.177551 33.15,12.2969388 C33.3489796,12.4561224 33.5081633,12.655102 33.5479592,12.8938776 C33.627551,13.1326531 33.5877551,13.4112245 33.4285714,13.6102041 C33.2693878,13.8091837 33.0704082,13.9683673 32.8316327,14.0081633 C32.7520408,14.0479592 32.7122449,14.0479592 32.6326531,14.0479592 C32.4336735,14.0479592 32.2744898,13.9683673 32.1153061,13.8887755 C31.8765306,13.7693878 31.7571429,13.5306122 31.7173469,13.2918367 C31.6377551,13.0530612 31.7173469,12.7744898 31.8367347,12.5755102 C31.9959184,12.3765306 32.194898,12.2173469 32.4336735,12.177551 Z M2.20469388,11.5662857 L2.34795918,11.5806122 C2.58673469,11.6204082 2.8255102,11.7795918 2.94489796,11.9785714 C3.06428571,12.2173469 3.10408163,12.4561224 3.06428571,12.694898 C3.0244898,12.9336735 2.86530612,13.172449 2.66632653,13.2918367 C2.50714286,13.4112245 2.30816327,13.4510204 2.14897959,13.4510204 C2.06938776,13.4510204 2.02959184,13.4112245 1.95,13.4112245 C1.47244898,13.2918367 1.11428571,12.8142857 1.23367347,12.2969388 C1.27346939,12.0581633 1.43265306,11.8193878 1.63163265,11.7 C1.87040816,11.5806122 2.10918367,11.5408163 2.34795918,11.5806122 Z M27.8571429,7.24285714 C28.0959184,7.16326531 28.3744898,7.24285714 28.5734694,7.3622449 C28.772449,7.52142857 28.9316327,7.72040816 28.9714286,7.95918367 C29.0510204,8.19795918 29.0112245,8.47653061 28.8520408,8.6755102 C28.6928571,8.8744898 28.4938776,9.03367347 28.255102,9.07346939 C28.1755102,9.11326531 28.1357143,9.11326531 28.0561224,9.11326531 C27.8571429,9.11326531 27.6979592,9.03367347 27.5387755,8.95408163 C27.3397959,8.83469388 27.1806122,8.59591837 27.1408163,8.35714286 C27.0612245,8.11836735 27.1408163,7.83979592 27.2602041,7.64081633 C27.4193878,7.44183673 27.6183673,7.28265306 27.8571429,7.24285714 Z M19.3806122,5.21326531 C20.3755102,5.21326531 21.2112245,6.08877551 21.2112245,7.12346939 L21.2112245,7.12346939 L21.1714286,7.12346939 L21.1714286,8.91428571 L13.8091837,8.91428571 L13.8091837,7.12346939 C13.8091837,6.04897959 14.644898,5.21326531 15.6397959,5.21326531 L15.6397959,5.21326531 Z M6.78122449,6.63159184 L6.9244898,6.64591837 C7.16326531,6.68571429 7.40204082,6.84489796 7.52142857,7.04387755 C7.64081633,7.28265306 7.68061224,7.52142857 7.64081633,7.76020408 C7.60102041,7.99897959 7.44183673,8.2377551 7.24285714,8.35714286 C7.08367347,8.47653061 6.88469388,8.51632653 6.7255102,8.51632653 C6.64591837,8.51632653 6.60612245,8.47653061 6.52653061,8.47653061 C6.00918367,8.35714286 5.69081633,7.87959184 5.81020408,7.3622449 C5.85,7.12346939 6.00918367,6.88469388 6.20816327,6.76530612 C6.44693878,6.64591837 6.68571429,6.60612245 6.9244898,6.64591837 Z M17.5102041,0.278571429 C18.6244898,0.278571429 19.5397959,1.23367347 19.5397959,2.34795918 C19.5397959,3.4622449 18.6244898,4.37755102 17.5102041,4.37755102 C16.3959184,4.37755102 15.4806122,3.42244898 15.4806122,2.30816327 C15.4806122,1.19387755 16.3959184,0.278571429 17.5102041,0.278571429 Z" id="Combined-Shape" fill-rule="nonzero"></path>
                        <path d="M20.7186293,16.7142857 C22.4858799,16.7142857 24.102023,18.157098 23.9184225,19.9147905 C23.5417463,23.5209841 20.0538087,24.7746275 18.088033,27.1629963 C16.0048162,24.6665099 12.3025977,22.4423284 12.2576387,19.9147905 C12.2262406,18.1478024 13.6901704,16.7142857 15.4574319,16.7142857 C16.5474334,16.7142857 17.5102408,17.3471662 18.088033,18.1795411 C18.6658257,17.3471662 19.6286278,16.7142857 20.7186293,16.7142857 L20.7186293,16.7142857 Z" id="Combined-Shape"></path>
                    </g>
                </g>
            </g>
        </g>
    </g>
</svg>