<?xml version="1.0" encoding="UTF-8"?>
<svg width="35px" height="35px" viewBox="0 0 35 35" version="1.1" xmlns="http://www.w3.org/2000/svg" xmlns:xlink="http://www.w3.org/1999/xlink">
    <title>noun_Policy_3194426</title>
    <g id="Page-1" stroke="none" stroke-width="1" fill="none" fill-rule="evenodd">
        <g id="Home" transform="translate(-1104.000000, -801.000000)" fill="#FFFFFF" fill-rule="nonzero">
            <g id="Group-7-Copy-3" transform="translate(1000.000000, 790.000000)">
                <g id="Group-9" transform="translate(90.000000, 0.000000)">
                    <g id="Group" transform="translate(14.000000, 11.000000)">
                        <path d="M26.9791667,16.25 C27.4080882,16.25 27.8370098,16.5 28.0085784,16.875 C28.0514706,17 29.3382353,19.3333333 33.5845588,19.75 C34.185049,19.7916667 34.6568627,20.2916667 34.5710784,20.8333333 L34.5710784,20.8333333 L34.5710784,25.375 C34.5710784,30.9583333 27.7512255,34.4583333 27.4509804,34.5833333 C27.2794118,34.6666667 27.1078431,34.7083333 26.9362745,34.7083333 C26.7647059,34.7083333 26.5931373,34.6666667 26.4215686,34.5833333 C26.1213235,34.4583333 19.3014706,30.9583333 19.3014706,25.375 L19.3014706,25.375 L19.3014706,20.875 C19.3014706,20.2916667 19.7303922,19.7916667 20.3308824,19.75 C24.620098,19.2916667 25.8639706,16.9583333 25.9068627,16.875 C26.1213235,16.5 26.5502451,16.25 26.9791667,16.25 Z M4.93259804,6.25 L4.93259804,8.58333333 L2.40196078,8.58333333 L2.40196078,32.25 L20.8026961,32.25 C20.9742647,33.0833333 21.2745098,33.8333333 21.6176471,34.5416667 L21.6176471,34.5416667 L2.27328431,34.5416667 C0.986519608,34.5416667 2.88396757e-14,33.5416667 2.88396757e-14,32.3333333 L2.88396757e-14,32.3333333 L2.88396757e-14,8.45833333 C2.88396757e-14,7.25 1.02941176,6.25 2.27328431,6.25 L2.27328431,6.25 L4.93259804,6.25 Z M30.8823529,22.9583333 C30.4534314,22.5 29.7242647,22.5 29.252451,22.9583333 L29.252451,22.9583333 L26.0355392,26.0833333 L24.7487745,24.8333333 C24.3198529,24.375 23.5906863,24.375 23.1188725,24.8333333 C22.6470588,25.25 22.6470588,25.9583333 23.1188725,26.4166667 L23.1188725,26.4166667 L25.2205882,28.4583333 C25.435049,28.6666667 25.7352941,28.7916667 26.0355392,28.7916667 C26.3357843,28.7916667 26.6360294,28.6666667 26.8504902,28.4583333 L26.8504902,28.4583333 L30.8823529,24.5416667 C31.3112745,24.0833333 31.3112745,23.375 30.8823529,22.9583333 Z M17.1997549,25.375 C17.1568627,25.5416667 17.1568627,25.7083333 17.1568627,25.875 L17.1568627,25.875 L17.1568627,27.7083333 L7.33455882,27.7083333 C6.99142157,27.7083333 6.69117647,27.4166667 6.69117647,27.0833333 L6.69117647,27.0833333 L6.69117647,26.0416667 C6.69117647,25.7083333 6.99142157,25.4166667 7.33455882,25.375 L7.33455882,25.375 Z M16.3419118,19.5416667 C16.685049,19.5416667 16.9852941,19.8333333 16.9852941,20.1666667 L16.9852941,20.1666667 L16.9852941,21.2083333 C16.9852941,21.5416667 16.685049,21.8333333 16.3419118,21.8333333 L16.3419118,21.8333333 L7.33455882,21.8333333 C6.99142157,21.8333333 6.69117647,21.5416667 6.69117647,21.2083333 L6.69117647,21.2083333 L6.69117647,20.1666667 C6.69117647,19.8333333 6.99142157,19.5416667 7.33455882,19.5416667 L7.33455882,19.5416667 Z M20.6311275,13.625 C20.9742647,13.625 21.2745098,13.9166667 21.2745098,14.25 L21.2745098,14.25 L21.2745098,15.2916667 C21.2745098,15.625 20.9742647,15.9166667 20.6311275,15.9166667 L20.6311275,15.9166667 L7.33455882,15.9166667 C6.99142157,15.9166667 6.69117647,15.625 6.69117647,15.2916667 L6.69117647,15.2916667 L6.69117647,14.25 C6.69117647,13.9166667 6.99142157,13.625 7.33455882,13.625 L7.33455882,13.625 Z M25.6495098,6.25 C26.9362745,6.25 27.9227941,7.25 27.9227941,8.45833333 L27.9227941,8.45833333 L27.9227941,15.4166667 C27.5367647,15.2083333 27.1078431,15.125 26.6789216,15.125 C26.2928922,15.125 25.9068627,15.2083333 25.5637255,15.375 L25.5637255,15.375 L25.5208333,15.375 L25.5208333,8.54166667 L22.8615196,8.54166667 L22.8615196,6.25 Z M13.8541667,0.208333333 C16.127451,0.208333333 17.9718137,1.91666667 18.1004902,4.125 L18.1004902,4.125 L20.2022059,4.125 C20.7169118,4.125 21.1029412,4.54166667 21.1029412,5 L21.1029412,5 L21.1029412,8.5 C21.1029412,9 20.7169118,9.375 20.2022059,9.375 L20.2022059,9.375 L7.54901961,9.375 C7.07720588,9.375 6.64828431,8.95833333 6.60539216,8.5 L6.60539216,8.5 L6.60539216,5 C6.60539216,4.5 7.03431373,4.125 7.50612745,4.125 L7.50612745,4.125 L9.60784314,4.125 C9.73651961,1.95833333 11.5808824,0.208333333 13.8541667,0.208333333 Z M13.8541667,2.75 C12.9963235,2.75 12.2671569,3.45833333 12.2242647,4.33333333 C12.2242647,5.20833333 12.9534314,5.91666667 13.8541667,5.91666667 C14.754902,5.91666667 15.4840686,5.20833333 15.4840686,4.33333333 C15.4840686,3.45833333 14.754902,2.75 13.8541667,2.75 Z" id="Combined-Shape"></path>
                    </g>
                </g>
            </g>
        </g>
    </g>
</svg>