<?xml version="1.0" encoding="UTF-8"?>
<svg width="32px" height="32px" viewBox="0 0 32 32" version="1.1" xmlns="http://www.w3.org/2000/svg" xmlns:xlink="http://www.w3.org/1999/xlink">
    <!-- Generator: Sketch 58 (84663) - https://sketch.com -->
    <title>rss</title>
    <desc>Created with Sketch.</desc>
    <g id="AU-Users" stroke="none" stroke-width="1" fill="none" fill-rule="evenodd">
        <g id="Home" transform="translate(-901.000000, -3144.000000)" fill="#58595B" fill-rule="nonzero">
            <g id="noun_RSS_235544" transform="translate(901.000000, 3144.000000)">
                <path d="M16,0.326530612 C7.34302041,0.326530612 0.326530612,7.34432653 0.326530612,16 C0.326530612,24.6569796 7.34302041,31.6734694 16,31.6734694 C24.6556735,31.6734694 31.6734694,24.6569796 31.6734694,16 C31.6734694,7.34432653 24.6556735,0.326530612 16,0.326530612 Z M10.122449,24.8163265 C8.8619136,24.8163265 7.83673469,23.7940368 7.83673469,22.5326386 C7.83673469,21.2773194 8.8619136,20.244898 10.122449,20.244898 C11.387225,20.244898 12.4081633,21.2773194 12.4081633,22.5326386 C12.4081633,23.7940368 11.387225,24.8163265 10.122449,24.8163265 Z M15.2377287,24.8163265 C15.2377287,22.7111254 14.4664456,20.7276637 13.0685561,19.2430367 C11.6687115,17.7584097 9.8113758,16.9369161 7.83673469,16.9369161 L7.83673469,13.7142857 C13.5954529,13.7142857 18.2857143,18.6937247 18.2857143,24.8163265 L15.2377287,24.8163265 Z M21.024634,24.8163265 C21.024634,17.2507464 15.1033923,11.0939707 7.83673469,11.0939707 L7.83673469,7.83673469 C16.8371028,7.83673469 24.1632653,15.4572682 24.1632653,24.8163265 L21.024634,24.8163265 Z" id="rss"></path>
            </g>
        </g>
    </g>
</svg>