<?xml version="1.0" encoding="UTF-8"?>
<svg width="24px" height="24px" viewBox="0 0 24 24" version="1.1" xmlns="http://www.w3.org/2000/svg" xmlns:xlink="http://www.w3.org/1999/xlink">
    <!-- Generator: Sketch 58 (84663) - https://sketch.com -->
    <title>noun_send_976415</title>
    <desc>Created with Sketch.</desc>
    <g id="AU-Users" stroke="none" stroke-width="1" fill="none" fill-rule="evenodd">
        <g id="Discussion" transform="translate(-1188.000000, -1533.000000)" fill="#1A5632" fill-rule="nonzero">
            <g id="Group-13-Copy" transform="translate(200.000000, 549.000000)">
                <g id="noun_send_976415" transform="translate(988.000000, 984.000000)">
                    <path d="M16.7452416,8.95851403 C16.920535,8.73539285 16.8982715,8.41575176 16.6937392,8.2190861 C16.4892069,8.02242044 16.1689387,8.01270412 15.9528607,8.19660927 L6.04809877,16.6232759 L0.817622577,14.6004188 C0.35297656,14.4226008 0.0345903884,13.9902836 0.00263858509,13.4938018 C-0.0293132182,12.9973199 0.231031214,12.5277577 0.669051148,12.2918474 L22.3833369,0.12803784 C22.7310635,-0.0592733392 23.1536803,-0.0398915838 23.4828026,0.178460764 C23.811925,0.396813111 23.994072,0.778654834 23.9566702,1.17184736 L22.0519083,21.0270855 C22.0132317,21.4399961 21.7819351,21.8104292 21.4279155,22.0264411 C21.0738958,22.2424531 20.6386891,22.2787001 20.2538131,22.1242283 L13.8880988,19.6594664 L9.89190829,23.4042283 C9.59045082,23.6858706 9.15026131,23.7610013 8.77245125,23.5952951 C8.3946412,23.429589 8.15175665,23.0548644 8.15476543,22.6423236 L8.15476543,19.7013712 L16.7452416,8.95851403 Z" id="Path"></path>
                </g>
            </g>
        </g>
    </g>
</svg>