<?xml version="1.0" encoding="UTF-8"?>
<svg width="20px" height="6px" viewBox="0 0 20 6" version="1.1" xmlns="http://www.w3.org/2000/svg" xmlns:xlink="http://www.w3.org/1999/xlink">
    <!-- Generator: Sketch 63.1 (92452) - https://sketch.com -->
    <title>noun_menu_424741</title>
    <desc>Created with Sketch.</desc>
    <g id="AU-Users" stroke="none" stroke-width="1" fill="none" fill-rule="evenodd">
        <g id="Organiser" transform="translate(-1255.000000, -544.000000)" fill="#58595B" fill-rule="nonzero">
            <g id="Group-2" transform="translate(348.000000, 528.000000)">
                <g id="noun_menu_424741" transform="translate(907.000000, 16.623626)">
                    <g id="Group">
                        <g id="a-link">
                            <g id="a">
                                <path d="M4.08791209,0.725274725 C3.61904762,0.263736264 3.05494505,0.032967033 2.3956044,0.032967033 C1.73626374,0.032967033 1.17216117,0.263736264 0.703296703,0.725274725 C0.234432234,1.19413919 0,1.75824176 0,2.41758242 C0,3.07692308 0.234432234,3.64102564 0.703296703,4.10989011 C1.17216117,4.57875458 1.73626374,4.81318681 2.3956044,4.81318681 C3.05494505,4.81318681 3.61904762,4.57875458 4.08791209,4.10989011 C4.54945055,3.64102564 4.78021978,3.07692308 4.78021978,2.41758242 C4.78021978,1.75824176 4.54945055,1.19413919 4.08791209,0.725274725 M9.89010989,0.032967033 C9.23076923,0.032967033 8.66666667,0.263736264 8.1978022,0.725274725 C7.73626374,1.19413919 7.50549451,1.75824176 7.50549451,2.41758242 C7.50549451,3.07692308 7.73626374,3.64102564 8.1978022,4.10989011 C8.66666667,4.57875458 9.23076923,4.81318681 9.89010989,4.81318681 C10.5494505,4.81318681 11.1135531,4.57875458 11.5824176,4.10989011 C12.0512821,3.64102564 12.2857143,3.07692308 12.2857143,2.41758242 C12.2857143,1.75824176 12.0512821,1.19413919 11.5824176,0.725274725 C11.1135531,0.263736264 10.5494505,0.032967033 9.89010989,0.032967033 M19.0879121,0.725274725 C18.6190476,0.263736264 18.0586081,0.032967033 17.4065934,0.032967033 C16.7472527,0.032967033 16.1831502,0.263736264 15.7142857,0.725274725 C15.2454212,1.19413919 15.010989,1.75824176 15.010989,2.41758242 C15.010989,3.07692308 15.2454212,3.64102564 15.7142857,4.10989011 C16.1831502,4.57875458 16.7472527,4.81318681 17.4065934,4.81318681 C18.0586081,4.81318681 18.6190476,4.57875458 19.0879121,4.10989011 C19.5567766,3.64102564 19.7912088,3.07692308 19.7912088,2.41758242 C19.7912088,1.75824176 19.5567766,1.19413919 19.0879121,0.725274725 Z" id="Shape"></path>
                            </g>
                        </g>
                    </g>
                </g>
            </g>
        </g>
    </g>
</svg>