<?xml version="1.0" encoding="UTF-8"?>
<svg width="44px" height="60px" viewBox="0 0 44 60" version="1.1" xmlns="http://www.w3.org/2000/svg" xmlns:xlink="http://www.w3.org/1999/xlink">
    <!-- Generator: Sketch 58 (84663) - https://sketch.com -->
    <title>noun_User_305945</title>
    <desc>Created with Sketch.</desc>
    <g id="AU-Users" stroke="none" stroke-width="1" fill="none" fill-rule="evenodd">
        <g id="Register-Options" transform="translate(-428.000000, -396.000000)" fill="#9F2241" fill-rule="nonzero">
            <g id="Group-6" transform="translate(330.000000, 356.000000)">
                <g id="noun_User_305945" transform="translate(98.000000, 40.000000)">
                    <g id="Group">
                        <path d="M34.1853333,12.6393333 C34.1853333,5.65933333 29.2553333,0 22.002,0 C14.7446667,0 9.81266667,5.65933333 9.81266667,12.6393333 C9.81266667,19.6193333 14.7446667,25.2786667 22.002,25.2786667 C29.2553333,25.2786667 34.1853333,19.6193333 34.1853333,12.6393333 Z" id="Path"></path>
                        <path d="M0.653333333,49.2426667 C0.818666667,52.5733333 1.99933333,56.3066667 3.92133333,58.4413333 C5.768,60.598 39.378,60.4386667 40.0773333,58.4413333 C42,56.3066667 43.18,52.5733333 43.3453333,49.2426667 C43.3453333,37.912 33.85,28.726 22.098,28.624 L22.098,28.614 C22.0653333,28.614 22.0313333,28.6173333 21.9993333,28.6173333 C21.9673333,28.6173333 21.934,28.614 21.9006667,28.614 L21.9006667,28.624 C10.1493333,28.726 0.653333333,37.912 0.653333333,49.2426667 Z" id="Path"></path>
                    </g>
                </g>
            </g>
        </g>
    </g>
</svg>