<?xml version="1.0" encoding="UTF-8"?>
<svg width="37px" height="32px" viewBox="0 0 37 32" version="1.1" xmlns="http://www.w3.org/2000/svg" xmlns:xlink="http://www.w3.org/1999/xlink">
    <title>Volunteer Opportunities</title>
    <g id="Page-1" stroke="none" stroke-width="1" fill="none" fill-rule="evenodd">
        <g id="Home" transform="translate(-304.000000, -804.000000)" fill="#FFFFFF" fill-rule="nonzero">
            <g id="Group-7" transform="translate(202.000000, 790.000000)">
                <g id="Group-8" transform="translate(90.000000, 0.000000)">
                    <g id="Group" transform="translate(12.000000, 14.000000)">
                        <path d="M35.9326153,23.6183589 C35.9326153,24.5804102 35.5958974,25.3500512 34.9224615,25.9753846 C33.9123076,26.9374358 31.8438974,27.5146666 29.5349743,27.7070769 C29.5830769,27.3703589 29.6311794,26.8893333 29.6311794,26.4083076 C29.6311794,22.8968205 28.4767179,19.0005128 26.5045128,16.0181538 C25.6386666,14.7193846 24.6766153,13.6130256 23.6183589,12.795282 C24.8690256,11.9775384 26.1196923,11.4965128 27.2741538,11.4965128 C30.8818461,11.4003077 35.9326153,16.0662564 35.9326153,23.6183589 Z" id="Path"></path>
                        <path d="M31.8919999,4.71405127 C31.8919999,5.72420512 31.555282,6.59005127 31.0261538,7.35969229 C30.8337435,7.55210255 30.7375384,7.69641024 30.5932307,7.84071793 C29.7754871,8.70656408 28.572923,9.23569229 27.3222564,9.23569229 C26.3121025,9.23569229 25.3981538,8.9470769 24.6285128,8.36984614 C24.9652307,7.40779486 25.2057435,6.49384614 25.2057435,5.43558973 C25.2057435,4.04061538 24.7728205,2.64564102 24.0993846,1.49117948 C24.9171282,0.673435896 26.0234871,0.144307692 27.3222564,0.144307692 C29.8235897,0.144307692 31.8919999,2.16461538 31.8919999,4.71405127 Z" id="Path"></path>
                        <path d="M27.4184615,26.4083076 C27.4184615,26.9374358 27.3222564,27.4184615 27.1298461,27.803282 C26.9374358,28.1881025 26.6488205,28.6210256 26.4083076,28.9577435 C26.0234871,29.2944615 25.5424615,29.6311794 24.8690256,29.9197948 C21.3575384,31.4109743 14.5269743,31.4109743 10.9673846,29.9197948 C10.3420513,29.679282 9.81292306,29.342564 9.37999998,28.9577435 C9.04328203,28.6210256 8.70656408,28.2362051 8.56225639,27.803282 C8.36984614,27.3703589 8.27364101,26.9374358 8.27364101,26.4083076 C8.27364101,20.5397948 11.0154872,16.2105641 14.0459487,14.2383589 C14.671282,13.7573333 15.3447179,13.4687179 15.9700512,13.2282051 C16.547282,12.9876923 17.2207179,12.8914872 17.7979487,12.8914872 C18.5194871,12.8914872 19.192923,13.0838974 19.9625641,13.3725128 C20.5878974,13.6130256 21.2613333,13.9497436 21.8385641,14.4307692 C24.820923,16.547282 27.4184615,20.7322051 27.4184615,26.4083076 Z M23.0411282,22.6563076 C23.5702564,21.5980512 23.5702564,20.636 22.9930256,19.7220512 C22.4157948,18.8081025 21.4537435,18.2308718 20.2511794,18.2308718 C19.3853333,18.2308718 18.5194871,19.0005128 17.9422564,19.5777435 C17.3650256,19.0005128 16.547282,18.2789743 15.6814359,18.2789743 C14.5269743,18.2789743 13.564923,18.8562051 12.9876923,19.7220512 C12.7471795,20.2030769 12.6028718,20.6841025 12.6028718,21.1651282 C12.6028718,21.6461538 12.7471795,22.175282 12.9876923,22.7044102 C13.4687179,23.6183589 14.2383589,24.4361025 14.7674871,24.8690256 C15.4890256,25.590564 17.4131282,27.1298461 17.7498461,27.466564 L17.9903589,27.6589743 L18.2308718,27.466564 C18.6637948,27.0817435 20.5878974,25.4943589 21.2132307,24.820923 C21.8866666,24.2436923 22.6082051,23.4740512 23.0411282,22.6563076 Z" id="Shape"></path>
                        <path d="M17.7498461,0.288615384 C20.4916923,0.288615384 22.7525128,2.50133333 22.7525128,5.29128204 C22.7525128,8.03312819 20.4916923,10.2939487 17.7498461,10.2939487 C14.9598974,10.2939487 12.7471795,8.03312819 12.7471795,5.29128204 C12.7471795,2.59753846 15.008,0.336717948 17.7498461,0.288615384 Z" id="Path"></path>
                        <path d="M11.6408205,1.29876923 C10.8230769,2.45323076 10.3420513,3.89630768 10.3420513,5.4836923 C10.3420513,6.59005127 10.5825641,7.64830768 10.9673846,8.65846152 C10.3420513,9.13948716 9.47620511,9.37999998 8.61035896,9.37999998 C7.31158973,9.37999998 6.15712819,8.85087178 5.29128204,7.98502562 C5.19507691,7.79261537 5.05076922,7.64830768 4.85835896,7.45589742 C4.2811282,6.6862564 3.99251281,5.82041024 3.99251281,4.8102564 C3.99251281,2.26082051 6.06092306,0.24051282 8.56225639,0.24051282 C9.81292306,0.192410256 10.8230769,0.577230768 11.6408205,1.29876923 Z" id="Path"></path>
                        <path d="M8.65846152,11.3522051 C9.71671793,11.3522051 10.9673846,11.7851282 12.0737436,12.5547692 C10.919282,13.4206154 9.90912818,14.5750769 8.9470769,15.9700512 C7.02297434,18.9524102 5.82041024,22.8487179 5.82041024,26.3602051 C5.82041024,26.8412307 5.86851281,27.2260512 6.0128205,27.6589743 C3.89630768,27.4184615 2.02030769,26.8412307 1.05825641,25.927282 C0.336717948,25.3019487 0.048102564,24.5323076 0.048102564,23.5702564 C0.048102564,16.0662564 5.05076922,11.4003077 8.65846152,11.3522051 Z" id="Path"></path>
                    </g>
                </g>
            </g>
        </g>
    </g>
</svg>